<mxfile host="Electron" modified="2023-08-10T02:16:19.433Z" agent="Mozilla/5.0 (Windows NT 10.0; Win64; x64) AppleWebKit/537.36 (KHTML, like Gecko) draw.io/21.6.5 Chrome/114.0.5735.243 Electron/25.3.1 Safari/537.36" etag="sJGlXC58AcOuI5USXHaA" version="21.6.5" type="device">
  <diagram name="第 1 页" id="G3DgirVITy8KuV5t3XXQ">
    <mxGraphModel dx="1480" dy="877" grid="1" gridSize="10" guides="1" tooltips="1" connect="1" arrows="1" fold="1" page="1" pageScale="1" pageWidth="827" pageHeight="1169" math="0" shadow="0">
      <root>
        <mxCell id="0" />
        <mxCell id="1" parent="0" />
        <mxCell id="Vqh15J--ComA9VXyhkxe-5" style="edgeStyle=orthogonalEdgeStyle;rounded=0;sketch=1;hachureGap=4;jiggle=2;curveFitting=1;orthogonalLoop=1;jettySize=auto;html=1;entryX=0.5;entryY=0;entryDx=0;entryDy=0;fontFamily=Architects Daughter;fontSource=https%3A%2F%2Ffonts.googleapis.com%2Fcss%3Ffamily%3DArchitects%2BDaughter;fontSize=16;" edge="1" parent="1" source="Vqh15J--ComA9VXyhkxe-2" target="Vqh15J--ComA9VXyhkxe-4">
          <mxGeometry relative="1" as="geometry" />
        </mxCell>
        <mxCell id="Vqh15J--ComA9VXyhkxe-2" value="BeanFactory" style="rounded=1;whiteSpace=wrap;html=1;sketch=1;hachureGap=4;jiggle=2;curveFitting=1;fontFamily=Architects Daughter;fontSource=https%3A%2F%2Ffonts.googleapis.com%2Fcss%3Ffamily%3DArchitects%2BDaughter;fontSize=20;fillColor=#dae8fc;strokeColor=#6c8ebf;" vertex="1" parent="1">
          <mxGeometry x="80" y="320" width="120" height="60" as="geometry" />
        </mxCell>
        <mxCell id="Vqh15J--ComA9VXyhkxe-3" value="&lt;font style=&quot;font-size: 14px;&quot;&gt;抽象接口&lt;/font&gt;" style="text;html=1;strokeColor=#d6b656;fillColor=#fff2cc;align=center;verticalAlign=middle;whiteSpace=wrap;rounded=0;fontSize=20;fontFamily=Architects Daughter;" vertex="1" parent="1">
          <mxGeometry x="40" y="290" width="190" height="20" as="geometry" />
        </mxCell>
        <mxCell id="Vqh15J--ComA9VXyhkxe-7" value="" style="edgeStyle=orthogonalEdgeStyle;rounded=0;sketch=1;hachureGap=4;jiggle=2;curveFitting=1;orthogonalLoop=1;jettySize=auto;html=1;fontFamily=Architects Daughter;fontSource=https%3A%2F%2Ffonts.googleapis.com%2Fcss%3Ffamily%3DArchitects%2BDaughter;fontSize=16;" edge="1" parent="1" source="Vqh15J--ComA9VXyhkxe-4" target="Vqh15J--ComA9VXyhkxe-6">
          <mxGeometry relative="1" as="geometry" />
        </mxCell>
        <mxCell id="Vqh15J--ComA9VXyhkxe-4" value="作用" style="rounded=1;whiteSpace=wrap;html=1;sketch=1;hachureGap=4;jiggle=2;curveFitting=1;fontFamily=Architects Daughter;fontSource=https%3A%2F%2Ffonts.googleapis.com%2Fcss%3Ffamily%3DArchitects%2BDaughter;fontSize=20;fillColor=#dae8fc;strokeColor=#6c8ebf;" vertex="1" parent="1">
          <mxGeometry x="80" y="420" width="120" height="60" as="geometry" />
        </mxCell>
        <mxCell id="Vqh15J--ComA9VXyhkxe-9" style="edgeStyle=orthogonalEdgeStyle;rounded=0;sketch=1;hachureGap=4;jiggle=2;curveFitting=1;orthogonalLoop=1;jettySize=auto;html=1;entryX=0.5;entryY=0;entryDx=0;entryDy=0;fontFamily=Architects Daughter;fontSource=https%3A%2F%2Ffonts.googleapis.com%2Fcss%3Ffamily%3DArchitects%2BDaughter;fontSize=16;" edge="1" parent="1" source="Vqh15J--ComA9VXyhkxe-6" target="Vqh15J--ComA9VXyhkxe-8">
          <mxGeometry relative="1" as="geometry" />
        </mxCell>
        <mxCell id="Vqh15J--ComA9VXyhkxe-6" value="Bean对象" style="ellipse;whiteSpace=wrap;html=1;fontSize=20;fontFamily=Architects Daughter;rounded=1;sketch=1;hachureGap=4;jiggle=2;curveFitting=1;fontSource=https%3A%2F%2Ffonts.googleapis.com%2Fcss%3Ffamily%3DArchitects%2BDaughter;fillColor=#dae8fc;strokeColor=#6c8ebf;" vertex="1" parent="1">
          <mxGeometry x="100" y="530" width="80" height="80" as="geometry" />
        </mxCell>
        <mxCell id="Vqh15J--ComA9VXyhkxe-8" value="getBean()" style="text;html=1;strokeColor=#6c8ebf;fillColor=#dae8fc;align=center;verticalAlign=middle;whiteSpace=wrap;rounded=0;fontSize=20;fontFamily=Architects Daughter;" vertex="1" parent="1">
          <mxGeometry x="80" y="650" width="120" height="40" as="geometry" />
        </mxCell>
        <mxCell id="Vqh15J--ComA9VXyhkxe-10" value="获取Bean实例" style="text;html=1;strokeColor=none;fillColor=none;align=center;verticalAlign=middle;whiteSpace=wrap;rounded=0;fontSize=20;fontFamily=Architects Daughter;" vertex="1" parent="1">
          <mxGeometry x="70" y="700" width="150" height="40" as="geometry" />
        </mxCell>
        <mxCell id="Vqh15J--ComA9VXyhkxe-11" value="" style="shape=image;verticalLabelPosition=bottom;labelBackgroundColor=default;verticalAlign=top;aspect=fixed;imageAspect=0;image=data:image/png,iVBORw0KGgoAAAANSUhEUgAAAakAAAIfCAYAAADKVyOuAAAgAElEQVR4nOy9fUxc17no/dtgwHZtoxhmYgykahy718YHF7hIb5oPVwesnDDjVmoZhK6uDPjoqP/kJDhqTKWCLUNeKZOq9TTJH6/06nqM/0kEpGrMYN5eQ6V8WDm6vsCxxdh1fZybNnw4M4MpwYcEsNnvH3s+9h7mCwJmYJ6fZMnstWbtZ6+193rW86xnraUU/cMPVARBEARhDZn+6iuK/uEQjz2203A9bY3kEQRBEAQDmZsyFl1LeiU1/dVXay2CIAiC8Aj4698+R1WNzj1F3H2CIAjCWhPNIEl6S0oQBEFIXURJCYIgCEnLprUWQBAEQRAANm/ZtuiaWFKCIAhC0iJKShAEQUhaREkJgiAISYsoKUEQBCFpESUlCIIgJC2ipARBEISkRZSUIAiCkLQk7TqptMx0tj+xje/kf4eMrdqmg/Mz8/zn6H8y/bf7LMw9XGMJBUEQhNUm+ZSUAqYfmDCV5qKiMD0+xcz9/wQga1sWuw/no6DiHfTh/XcvyM6DgiAIG5akUlJpmek88U9PsDkni5H//QUT/+FDXQjbETdNIeepXHaXFvCdwm387f/7m1hVgiAIG5TkmZNS4Il/eoL076TxZ5cb31+8ixQUgLqg4vuLlz+73KR/J40n/ukJUNZAXkEQBGHVSRpLyvQDE5tzMvmz6wZz9+cA2LJzK1t2bjHk+/re13x9b4a5+3Pc6fsL/8V6ANMPTHiHvBHLzd6bSU5xJhnbFGa+XODulRnmp5fvI7TZXdQVGbWip6+Z446hZZe5XEobnbRWmhddHz7/Ir/sSp7xhyAIwnJJCiWVnpmGqTSXkYEvggoKYPvj2zEXPc6mzVrgxINv5vG4v+TrezMAzN2fY2xolIKyQu65J3g4t2Asd7PC409n4b36DbN/X8BUlkXuDzYz/vHX30pe1XOZ0w2/ZVBJQy1pxNnaxjla1kRRqeowF6yv0anoldLKKChVrcbuqof2KlF6giCsCQn3PP/tvx/je9/bEzX9e9/bw3/778eWJcS2J7YDMHHbZ7juufklw13Xmfz8HpOf32O46zqem18a8gR+EyhDT+aONBQFJv88z8z4Q+6PPmTT1pX1DSpDDnpvgCkvet0IgiAIyyNhS2rq71Mc/+d/4dz/+H/5P//njiHte9/bw/F//hf+7d8+XZYQ23Z/h6/Gv4o4BxUPdUHlq/Gv2Lb7O0z9x5QhTQnoIxWydqaTsVUhPVNhyy7jYy/MqczeW17whaqWkG8CwryNmoVVidkvhN76CvzuhLONSrM/XWcRBdIqvOc5PW4JuvQiW02xZYt2j1AezVo6GCYnJ9pDrsT6Xlz1Rrdm+PPBYjejze7imKmPC9cPUVdpRvVcxuWpxGruM9SFPm/4dUEQUpuEe4Me1wdcvfq/OP7P/2KwqAIK6urV/0WP64NlCbFp2ybmpufiZ4zC3PQcm7ZF0rehDtRcnkX2Uxlk7UzjiRe2GP6Zy7OWfW9stVSY3Fw42RG8pFbbcbUe4vqpKqxWCxZLM/1Ucsb5KqWq5pIsO1ELb+vSvUUc06UDKEUNvMRb/jxO3BRx7M2ahEWLdw+12k5PTwPm/hasVov272143gaDjgYsFifDqsrw+RexWi0hBVVtp6ftCJ72quDvLC2XMddd4lxjiUEGxXyEY3k9WK0Wjh538P/8bzeYDvF8aSiPqlZTdgDcl0RBCYJgZEk9wsUPfm9QVHoFdfGD36+WjMtm5ssH3GqfXvFyFfMRWnt6cbl66Kk/iLf/vaB1oqolnKgqwt1eh2NIu6YoQ5x9uw+vrnMedDQZ0y+5wZSH3mmoei7zztkBf54uOvq9cKAcm16RKQep88vicvXQ3W0Ppse6R0BO1e00zKUpQw4cMeafVLUae10Rnr5mg9WkDDl4p9+LqaLWIJ+qDhsUOJ3v0e81UXy4LHTNVk4RbgY641S8IAgpx5IDJwLK6Pg//wvAiiioB/cfkLk9c9m/z9yeyYP7D76VDEvBEDjhd6l1n9NcVQOlhyk2gdnvIgtn1x7ArxPCIwVVddiY2TsS17KI6AIMc6NFvIdfTvelDpY0ViktwAx4RgYW/W5gxAOYyS8l+Ix4x9E7hxVliI+ue6koPkypOsAAZZyoKsLb35KwG1MQhNRhWdF9eqW0EhbU/bH/JP/wbpQ0ZcnzUkqawo68HYx+OPat5VgOAQulok6zkgb816OHgacF54GKcNNu8c9DVdtx1a2cXI/iHstl4MNreCsC9XWYYpOX6x8uVnqCIAjLDkFfSffe/b9pLrmcvbn4boUiEMz7HzeEoG/ftR2P+0tDhF/O3lxDGWvO4AgewFxQRsicCMNWThFe+k+FLKCyAjPgWTk54t0jETkjEeN3gfJHB4m9wHrwQ657Kyk+XEYZhzB5r/FRvN8IgpCSJMXQ9eHcAt5BH7tL8sncFnL7TX85zdi/j/K3f/ucv/3b54z9+yjTX4aUUea2THaX5OMd9C1aI/WoCMzt4O9oA3NH5srXeaNaNzdT0sg5e3Xwb0Uxa64/f9pLFaYVly3WPaLKWW03/A0BhRT/d62VZtzt8aMPA9anqbiWmmKTBEwIghCVpFjMC+D9dy/fKdzGnsp93On7C3P35/j63kxw4W44mdsy2VO5j28m5rSNZuPwxR8jl7MctMCJI8G/VbeTo01dwbmgQUcDp3DSqpuX0uaxOkBJQ+lq4lRBKF31XOZ0u5szK+iKS+Qeg44GLCN2evRyup0cbQoEW3TR1F5OT/3ruCpDIegRf6d66Gt5MRioEZfOq7jrNHfkhU7EihIEISJK0T/8IGn2EddvMDs2OBJ3g9lvJmZlg9l1in4t2NGmrrUWRxCENWb6q6/YvGXboutJY0kBLMw95PPu/4PpByYK/msh+f/1CabHp5i9PwtoR3Vsz8uWozo2AqVawET/20uMLhQEIaVIKiUFgAreIS8T7nvBQw+3fuc7AMz/5zxjH47KoYcbgJraSkw3zifuHhQEISVJPiXlZ2HuIVP/MbVoqyNhfRPYuV0/RycIghCNpJqTEgRBEFKTdTEnJQiCIKQu33x9f9E18bUIgiAISYsoKUEQBCFpESUlCIIgJC2ipARBEISkRZSUIAiCkLSIkhIEQRCSFlFSgiAIQtIiSkoQBEFIWkRJCYIgCElLSu44sTktjeezt5MJfOzzAfBcbi5zwEdT03yzsDYHKAqCIAhGUkpJbVLAZsrhJ2YzD1WVTyYmyFQ1hVSYlcmzOTkcz9/NBx4Pnd4JHsiuhoIgCGtKymwwu31TOr/6biH5WVm8PzrKv927x0PV+OjpisL/tXMnP8vPZ3R2lv/7r18w/UCOBBEEQVhtpr/6KuL1lJiT2qTAr75byI70dNpu3uTKxMQiBQXwUFW5MjFB282b7EjXlNomOdZ8Q2Czu+g+10ipuj5duYnIr6olNJ5b388pCOGkhLvPZsohPyuL12/eZHJ+Pm7+yfl5fnf7Ns3792Mz5fCuZyJivuy9meQUZ5KxTWHmywXuXplhfjr5DVOb3UVdkVH7evqaOe4YWhN5Ih0lr1bb6ak/GMrjuczpht8yuIzzp1S1hHzTiolrwGZ3cczUt3zZwp4T1rYtBCHZ2PCW1NY0hR+bzfx+bIx78/N8f/t2Nqen8w/Z2TyTk8POzEwACrds4ZmcHPZs084zuTc/z+/Hxvix2czWtMXmVPpmhcefzmLyxixf/M8Z0jap5P5g8yN9tnioajVvdLt4o3rxqFr1XOaU5UWsVguWlstQ0ca5xpI1kBLKTrxMBX2cPtkBaAcjuuqg3S+f1WrBeimPl06UheSP8WzhKMoQjuNWjh53LEuRxKLjZAv9VBpkS4SA1eOqM9PXEnpOi8WJp6JtWdbQaj3nUupaEFaaDa+knsnewUNV5dMJzRr6xb59vPzUU1SYTPzIZOLMgQNY8vL4+ZNPcig7m9f27eMfzWYAPvW7BZ/J3rGo3MwdaSgKTP55npnxh9wffcimrevTN6gMOei9Aaa8PY/83qpaTU2FCfclzRIJ/O3tf49OXUerdDUlpXWhKEOcveTGVFGLbQlKpezEy1SY3Fyw1uEY0j2n0kWT9TxuUyVn3qxZDZEFYV2x4d19WcAnPp9hDuov09P8YWwMBWjev58f5uRw+sYNHiwsUGE288Ljj/Mnj0eLAPT5yIpQrhLQRypk7UwnY6tCeqbCll3GKl2YU5m9t7Tgi3AXkKfPyfXieoM7DEAtacTZWonZL4zeJRY4ph2A+l5c9dHdSEF3mDfseozyA7874Wyj0uxPV4e5YH2NTiXN4MI7PW4JyqLPA4CtnCJvH6c7AZ2O1xRmZKUU69kC7rcL1w9RFzym/rfsefNS0C03QFlisiXaFp3v0V/VRpkNOrt07ksiuwFDivgtw70CKEoXHf0WzlSUY1M7jHlKX+Wcvk3cTsM7Ecn9GK8dAzLZXfUcDMvDifaE3yNBWA02vCX1sc/H+6Ojhmu37munP6rAyMwMd+7f54F/bdTo11/zmN8FCPD+6GhwLZWRUI9qLs8i+6kMsnam8cQLWwz/zOWRVFx0Shud9NQfZPh8yAXUm1cfVAQB1Go7rtZDXD9V5XcTNdNPJWecr1KqLjDoaMBicTKsqsGyonYstlptVO93tyVSPkDZiVp4W5fuLeKYLh1AKWrgJd4KurLcFHFMZyHUlBeBdyTYYSpKFwM3tN9126sjihvv2RTzEY7l9WC1WmK6vuLJlmhbKMoQo14oKk/Q8iktwIyX6x8ORM0y8OE1vJjJL9Xdx3yEM/8K71irgm5a74H6mG7aRNpRrbbT09OAub8l5F59G563xa9rQVhtNrySisSCzqpSFQW9k0bFMKCPysyXD7jVPr2icgVG2J6+Zn7ZFWqajpMt9Hl0MqslnKgqwt0echUpyhBn3+7DazrE86WLil6EYj5Ca08vLlcPPfUHDe61RMsfdDQZ0y+5wZSH3mmoei7zztkBf54uOvq9cKAcm7oQtOC843cMsnU2WTnV50EpasDl6omqrKLX47BB4UbNF1O2xNoieP2qG0wFlKoL8eeG9uSRWByHiV26ylTVYS7oLCBlyME7/d6orsZE2jGQR3U7jYp+yIGjKyW7ByHJ2PDuvudycynIzFhkTSXKz/LzGZmbxzU5tcKSRaC0ADPgGRkg5vih9DDFJjD73S/h7IruKQuid/kE3FPd5/zusCWUHx4pqKrDxsw6KykakZ530NGA1REov4Hubgv9p4zzN1HxjnMnfq7YsiXaFnr8CnowXr4743gxJyIgd/UPEuG5BkY8ELC4wts8kXZEy+O+1EGKjlmFJGfDK6lZ4NncXP4wNhZxbVQs0hWFZ3NzaR8bXx3hviXD5180jPJDLK2zCVhBFXXa6DrghIpVfmAOowg37Rb/PFS1HVfdUp8iNp1NVjoCczytv2Y0bM5oXTI4godKig+XwVDk0UTZ4UOY8DA6SGKmfQxividrE9ApCAmzzr/2+FyZ+op0ReHpnBwALo6P45ubC6YPTU4yNDkZ/Ns3N8fFcU0pPZ2TQ7qicGUq8kroFWdwBA9gLggPZ97DLlMi+VZbDh22corw0n8qpDTKChKxDhYT7zmCrsRHSaJtoSdBCy4w7xbdTRc5wjHclQqBOb1rfBTJfEukHVf7XRKEb8mGV1IzCyoXPR5+uns3OzMy6B4bY2J2Nph+bWqKa1MhV97E7CzdY2PszMjgp7t3c9HjYWbh0SzQDXVeL9NYEuq8at4MRV0F8nX0ezFXvm5Yu6KWNHIuwvxNvA4oMC8R6OwSLV9RzME5E7WkkZcqlrZiNhBwoA9919bkOA3PH5TvxtVFVtRqda6JtkWAsgJz0H2YyM4PHSdbtEAT168NiipooXr7gvNlIZkOGgI71Go7dUVKMHw/0jPEa8eoearti9ZFiSIT1oIN7+4D6PROcGj7dl7ZuxfH7dtxd514LCODV/buZXR2lk5v5N0m9Hzxx5mVEpXOJivYXdS19VLpvzZ8vpk+UxsVunyDjgZO4aRVN9+gzTN1gC5Srqm9nJ7613FVGkOHtcCJI8HygqHM/t/GK1/pauJUQShd9VzmdLubM0t093VcdXOsSgs4GFTS/OuEwO66hEunDDx9zRzVT+zHeLaVItG2UNUSni824b2e0EyYX34tuOKjRietPb3oq234/Isc7UoLtkXwPp7LXBi34HI1GPJGduVpJPKeDDoasIzY6dHncTs52hT/PRKE1UY2mNWRrBvMRto2aKMQsBxor4rZ2SYLEbdwKmnE2ZpHbxLMl9nsLo6x8d4TYeOT0hvMAkw/eEjzZ59zyeejtrCQ3xQXU11QEEyvLijgN8XF1BYWcsnno/mzz5NCQQHBKC331fhh1euNgLupqOrV9bEpaoS2qKmthPD5ozUgWki/IKxnUkZJATxQ4V3PBPU3btE+Ns4Xs3PMKWnMKWl8MTtH+9g49Tdu8a5n7c6SKm10GhZnqmo19tZKTN4+OjrXRqbVZuDsW9oC0yTbBiiRtgjs8BA+f7Qm2GqpMMVeJCwI642UcfetJxatPQrb+kZ4dKyHttBvExVvjkoQkpVo7j5RUoIgCMKak/JzUoIgCML6Q5SUIAiCkLSIkhIEQRCSFlFSgiAIQtIiSkoQBEFIWkRJCYIgCEmLKClBEAQhaRElJQiCICQtoqQEQRCEpEWUlCAIgpC0pMR5UuFsTkvj+eztZAIf+3wAPJebyxzw0dQ03yysg924BUEQUoCUUlKbFLCZcviJ2cxDVeWTiQky/cdDFGZl8mxODsfzd/OBx0Ond+12QhcEQRA0UmaD2fV86KEgCMJGJ6U3mN2kwK++W8iO9HTabt7kysTEIgUF8FBVuTIxQdvNm+xI15TaJiVCgcK6w2Z30X2uMakPVlwPMgrCoyYl3H02Uw75WVm8fvMmk/PzcfNPzs/zu9u3ad6/H5sph3c9ExHzZe/NJKc4k4xtCjNfLnD3ygzz08lvmIafkQTg6WvmuGNoTeSJeCR7tZ2e+oOhPJ7LnG74LYPLOP02cGLtWqOq1dhd9RxUQnWfzOc/6c+pisRS35nAAZFLaceVlkFYf2x4d9/WNIX/ceC/0DEywic+H9/fvp2/zsywd9s2dmzaxM3pae7NzVG4ZQtPbN3K3dlZ7ty/D8CzubnUFBTwzzf+zMxCmGtws8Kemm14r37D7N8XMJVlMTelMv7x12vxmBEJdIq0Vxk6wvDOQi1pxNlaCf0ta/LBlzY6OVN8LShPaaOTMxUeLlhfCx7JrlbbcRa8F5Qv2rMlK4HONlwp2exO8t+rwzGUtqxO/FGhVttx1ZnpP6XJuqwy/IOR4uvLe89WQgYheUlZd98z2Tt4qKp8OqFZQ7/Yt4+Xn3qKCpOJH5lMnDlwAEteHj9/8kkOZWfz2r59/KNZG7l96ncLPpO9Y1G5mTvSUBSY/PM8M+MPuT/6kE1b16dvUBly0HsDTHl7Hvm9VbWamgoT7kt+hen/29v/XlBBAShdTet2xKxW2zlTAX0ti62mzqaGlOlwFWWIs5fcmCpqsYlLU0iQDe/uywI+8fkMc1B/mZ7mD2NjKEDz/v38MCeH0zdu8GBhgQqzmRcef5w/eTxaBKDPR1aEcoMeGxWydqaTsVUhPVNhyy5jlS7MqczeW1rwRbiry9Pn5HpxvcEdBgQtILNfGL1LzOAmqe/FVR/dNRJ0h3nDrscoP/C7E842Ks3+dHU4aP3oXXinxy1BWfR5ALCVU+Tt43QnoNPxmsKMrJRiPVvAGrlw/RB1leagzHvevBS0UgYoS0y2JbRFNFS1hBNVRXj7W5asjGLVr/a30X2ot9JipUW9X0kjztY8esPqIL6c1dhdFu4mYuF0vkd/VRtlNujs0rl6SU4LUlh7Nvwb8bHPx/ujo4Zrt/zuPBUYmZnhzv37PPCvjRr9+msey8wM5n1/dDS4lspIqEc1l2eR/VQGWTvTeOKFLYZ/5vJIKi46pY1OeuoPMnz+RaxWC1arhd68+mBHFUCttuNqPcT1U1VYrRYslmb6qeSM81VK1QUGHQ1YLE6GVTVYVlRLxFZLhcnNhZMdCZcPUHaiFt7WpXuLOKZLB1CKGniJt/x5nLgp4tibNcH0mvIi8I4EOydF6WLghva7bnt1RHHjPZtiPsKxvB6sVgtHjzuidnzxZEu0LWJSephiE3hGBhL/jZ9Y9RtQQub+lqBsAwXx0yKK2OjE5eqhp+0IhFmwiaAoXTS1e6hs68Xl6uFcY0mMvEOMeqGovCZqHkHQs+GVVCQWdFaVqijoP10Vw4A+KjNfPuBW+/SKyhVwdXn6mg2j3o6TLfR5dDL7R+fu9tDIVVGGOPt2H17TIZ4vjX8vxXyE1h6tU+mpP2hwryVa/qCjyZh+yQ2mPPROQ9VzmXfODvjzdNHR74UD5djUhaAF5x2/Y5Cts8nKqT4PSlEDLldPVGUVvR6HDQo3ar6YsiXWFonh5e6d+LnCiVm/pQWYMSq/TodfIcdK02Gzu3C5ejhT4aHdEmcgEwelqymo7D0VbVq7RYlU7LjqBlMBpeoCijKE47g15mBCSG02vLvvudxcCjIzFllTifKz/HxG5uZxTU6tsGQRMHQuMT5Y/+jc7Hd1hbMruqcsiN51F3C5dJ/zu8OWUH54pKCqDhsz66ykaER63kFHA1ZHoPwGurstiU+Ye8dJSCfEki3Rtlhlotbv4Idc91ZSWd9Ld1VY5GOsNHQuNpObdovftbdCCkJRuvjl0a7gPc44iezG8yvbwRW5q7CR2fBKahYtSu8PY2MR10bFIl1ReDY3l/ax8dUR7lsSfZ5hqe4abZReUadZSYHxd6zyAy6lIkIdnRZ9tdSniE1nk5WOQKfa+mtGlzhfsuYMjuChkuLDZTCUuJUSr34DFshZ/7xha88R3cAjVlpa8Lejdhd1Pb0cUz0rFjGnn8f8NssGBCHAhn97rkx9Rbqi8HRODgAXx8fxzc0F04cmJxmanAz+7Zub4+K4ppSezskhXVG4MhU5NHLFGRzBA5gLysIS9rDLlEi+1ZZDh62cIrz0nwopjbKC6OtZYhHvOYKurkdJom0Rh8Ac25Ij2hKsX2XIwfGjViznh1HMR6ixJZYG2gDAarVwup+E5pNiYZzXaok7H5iwtSukPBteSc0sqFz0ePjp7t3szMige2yMidnZYPq1qSmuTYVceROzs3SPjbEzI4Of7t7NRY9n0Rqp1SLUob1MY0moQ6t507gANDB/Yq58nTeqQ/nUkkbORZi/iacEAnNQeK/x0WDi5SuKWXP9+dNeqljaitnAJLo+9F1Vq3mj22l4/qB8N64usqJWS1En2hbg3ykixrxZx8kWLejB1b7ouRrPGZ/VKEP0+lVLGnkjTKGoqoe7d2KnRWLQ0aDNJ7VchmWEh2vzd1qIfSLzWmUF5qCrVasD2WlDiM6Gd/cBdHonOLR9O6/s3Yvj9u24u048lpHBK3v3Mjo7S6c38m4Ter7448xKiUpnkxXsLuraeqn0Xxs+30yfqY0KXb5BRwOncNKqmzfS3CsdwfkFLeqqnJ7613FVGkPQtcCJI8HyVLdTC6n2/zZe+UpXE6cKQumq5zKn292cWaK7r+Oqm2NV2iS65orqQquCS7h0ysDT18xRfQRfjGdbKRJpi2Dwx/XodkHAvfZRo5NWXVlqDDdbvPpVhhwM1LpwuZRFZSlET4uFZnmx5PmpwDxUImNeVS3h+WJTzPoSBD0bfseJAOt5g9lI2wZtFNbbzhHhbbGkNULCstdiCRuflN1xIsD0g4c0f/Y5l3w+agsL+U1xMdUFBcH06oICflNcTG1hIZd8Ppo/+zwpFBQQjOZzX40fVr3eCLgWi6qir+NJKsLbwlZOkd9NKsSnprZyWWuxhNQlpd6UByq865mg/sYt2sfG+WJ2jjkljTkljS9m52gfG6f+xi3e9azdWVKljU7D5LWqVmNvrcTk7aOjc21kWm0Gzr6lLRR+M7kWeCbSFkpXk6zxSZDAbiCBtWmCkAgp4+5bTyxaGxOYLxIeOdIWgvBoiObuEyUlCIIgrDkpPyclCIIgrD9ESQmCIAhJiygpQRAEIWkRJSUIgiAkLaKkBEEQhKRFlJQgCIKQtIiSEgRBEJIWUVKCIAhC0iJKShAEQUhaREkJgiAISUtKnCcVzua0NJ7P3k4m8LHPB8BzubnMAR9NTfPNwjrYjVsQBCEFSCkltUkBmymHn5jNPFRVPpmYINN/PERhVibP5uRwPH83H3g8dHrXbid0QRAEQSNlNphdz4ceCoIgbHRSeoPZTQr86ruF7EhPp+3mTa5MTCxSUAAPVZUrExO03bzJjnRNqW1SIhQorDtsdhfd5xrXxcGKiciqqiU0nls/z7QaSD2lBinh7rOZcsjPyuL1mzeZnJ+Pm39yfp7f3b5N8/792Ew5vOuZiJgve28mOcWZZGxTmPlygbtXZpifTn7DNPyMJABPXzPHHUNrIk/4kewAarWdnvqDoTyey5xu+O2yDhdU1RLyTSsm7rIJfyZY23pfLQKHGy67vVKknoTE2PCW1NY0hR+bzfx+bIx78/N8f/t2Nqen8w/Z2TyTk8POzEwACrds4ZmcHPZs2wbAvfl5fj82xo/NZramLTan0jcrPP50FpM3Zvnif86Qtkkl9webH+mzxUNVq3mj28Ub1YtHkKrnMqcsL2K1WrC0XIaKNsMptI+SshMvU0Efp09qR7KXNjpx1UG7Xz6r1YL1Uh4vnSgLyR/j2cJRlCEcx61rdoJuYDTvqjPT1xJ6JovFiaeibVmj/NV6pqXUazQ6TrbQT6WhvRK7d2rVk5AYG15JPZO9g4eqyqcTmjX0i337ePmpp6gwmfiRycSZAwew5OXx8yef5FB2Nq/t28c/ms0AfOp3Cz6TvWNRuZk70lAUmPzzPDPjD7k/+pBNW9enb1AZctB7A0x5ex75vVW1mpoKE+5L2qg78Le3/z06dZ2K0tW0bkfSZVvej/MAACAASURBVCdepsLk5oK1DseQ7pmULpqs53GbKjnzZs0aSriyKMoQZy+5MVXUYluCUkm1ehISY8O7+7KAT3w+wxzUX6an+cPYGArQvH8/P8zJ4fSNGzxYWKDCbOaFxx/nTx6PFgHo85EVoVwloI9UyNqZTsZWhfRMhS27jFW6MKcye29pwRfh7g5Pn5PrxfUGdxiAWtKIs7USs18YvUustNFJa6WmbKnvxVUf3WUSdId5w67HKD/wuxPONirN/nR1mAvW1+hU0gwuvNPjlqAs+jwA2Mop8vZxuhPQ6XhNYUZWSrGeLeBqunD9EHWV5qDMe968FHRBDVCWmGxLaItohJTuW4ZyAyhKFx39Fs5UlGNTO4x5Sl/lnL7+w46uj+RWi9dmAZnsrnoOhuXhRHvC70xcOt+jv6qNMht0dulcukR2A6ZsPQlx2fCW1Mc+H++Pjhqu3bp/HwAVGJmZ4c79+zzwr40a/fprHvO7AAHeHx0NrqUyEupRzeVZZD+VQdbONJ54YYvhn7k8koqLTmmjk576gwyfD7k7evPqg4oggFptx9V6iOunqvwukWb6qeSM81VK1QUGHQ1YLE6GVTVYVtSPyFarjWD97rZEygcoO1ELb+vSvUUc06UDKEUNvMRbQbeNmyKO6UbDNeVF4B0Jdg6K0sXADe133fbqiOLGezbFfIRjeT1YrZaYbp54siXaFjEpLcCMl+sfDkTNMvDhNbyYyS/VyWY+wpl/hXesVUGXrPdAfUyXbCJtplbb6elpwNzfEnKlvg3P2+LX61JQlCFGvVBUnqDlk6L1JMRnwyupSCzorCpVUdA7JFQMA/qozHz5gFvt0ysqV2A06elr5pddoabpONlCn0cns1rCiaoi3O0ht4iiDHH27T68pkM8X7qo6EUo5iO09vTicvXQU3/Q4F5LtPxBR5Mx/ZIbTHnonYaq5zLvnB3w5+mio98LB8qxqQtBC847fscgW2eTlVN9HpSiBlyunqjKKno9DhsUbtR8MWVLrC3isiePxGI2TOzSVZyqDnNBN7JXhhy80++N6kJLpM0CeVS306jUhxw4ula+K+i46gZTAaXqQvy5oRSuJyE2G97d91xuLgWZGYusqUT5WX4+I3PzuCanVliyCJQWYAY8IwPEHD+UHqbYBGa/qyGcXdE9ZUH07o2AK6b7nN8dtoTywyMFVXXYmFlnJUUj0vMOOhqwOgLlN9DdbaH/lHGuIirece7EzxVbtkTbIh53xvFiTkQY7uqFjvAMAyMeCFgS4e2bSJuh5XFf6uCRjU/9g5bBePlSvZ6EqGx4JTULPJubyx/GxiKujYpFuqLwbG4u7WPjqyPct2T4/IuGUX6IpX1YASuook4bSQYcLrHKD/jri3DTbvHPQ1XbcdUt9Sli09lkpSMwn9H6a0bD5oySnsERPFRSfLgMhiKPHMoOH8KEh9FBEjPjYxDznVib4M3EkHoSorCOvvblcWXqK9IVhadzcgC4OD6Ob24umD40OcnQ5GTwb9/cHBfHNaX0dE4O6YrClanIK6FXnMERPIC5IDx0dw+7TInkW205dNjKKcJL/6mQ0igrSGQkvJh4zxF0JT5KEm2LOATm2KK7nyJHM4a7TSEwf3eNjyKZJYm02Wq/N5FI0KpN+XoSorLhldTMgspFj4ef7t7NzowMusfGmJidDaZfm5ri2lTIlTcxO0v32Bg7MzL46e7dXPR4mFl4NAt0Qx/qyzSWhD7UmjdDEUaBfB39XsyVrxvWaagljZyLMH8T72ML+OADH3ai5SuKOTg/oJY08lLF0lbMBibX9aHv2voTp+H5g/LduLrIilqtjiTRtgD/zgcx5s06TrZoQSWuXxs64KA16u0Lzo2F7n/QEMShVtupK1KCofqR5I3XZlHzVNsXrffR12tgTVDgGeP9HaCswBx0qSay88N6rydhddjw7j6ATu8Eh7Zv55W9e3Hcvh1314nHMjJ4Ze9eRmdn6fRG3m1Czxd/nFkpUelssoLdRV1bL5X+a8Pnm+kztVGhyzfoaOAUTlp1vnVtnqkDdJFyTe3l9NS/jqvSGCarBU4cCZYXDNv1/zZe+UpXE6cKQumq5zKn292cWaK7r+Oqm2NV2uT6oJLmXxMDdtclXDpl4Olr5qh+EjvGs60UibRFMPjjenR7IRA08FGjk9aeXvRVNHz+RY52pQXrPYDqucyFcQsuV4Mhb2QXlUYi78SgowHLiJ0efR63k6NN0d+ZhrN3uOuFouCd4v2t1cvzxaaY9bLR6kki/FYH2WBWR7JuMBtp26CNQmCUTHtVzI4lWQhvC01+C3cTDepYQWx2F8dIzndCW4eUR28SzCEmcz0JIVJ6g1mA6QcPaf7scy75fNQWFvKb4mKqCwqC6dUFBfymuJjawkIu+Xw0f/Z5UigoIBiR5L4aP6x6vRFwrRRVvbo+NgANbwtbOUXR5j9WkWjh+8lCTW0lhM8frQHJXk9CfFJGSQE8UOFdzwT1N27RPjbOF7NzzClpzClpfDE7R/vYOPU3bvGuZ+3OkiptdBoWIqpqNfbWSkzePjo610am1Wbg7FvaYsok2/ImkbZQuprWZk9AWy0VptiLX9eKwA4P4fNHayNM8taTkBgp4+5bTyxaexS2zYvw6Ei2ttBvCRVv7iWVkXpaf0Rz94mSEgRBENaclJ+TEgRBENYfoqQEQRCEpEWUlCAIgpC0iJISBEEQkhZRUoIgCELSIkpKEARBSFpESQmCIAhJiygpQRAEIWkRJSUIgiAkLaKkBEEQhKQlJc6TCmdzWhrPZ28nE/jY5wPgudxc5oCPpqb5ZmEd7MYtCIKQAqSUktqkgM2Uw0/MZh6qKp9MTJDpPx6iMCuTZ3NyOJ6/mw88Hjq9a7cTuiAIgqCRMhvMrudDDwVBEDY6Kb3B7CYFfvXdQnakp9N28yZXJiYWKSiAh6rKlYkJ2m7eZEe6ptQ2KREKFJICm91F97nG9XFYoiAIyyIl3H02Uw75WVm8fvMmk/PzcfNPzs/zu9u3ad6/H5sph3c9ExHzZe/NJKc4k4xtCjNfLnD3ygzz08lvmIafkQTg6WvmuGNoTeQJP5I9dF07Wv6gEpI1mc8G0p9hFIml1nHg8MDTDb9N+FDFlZZBENaaDa+ktqYp/NhspmNkhHvz83x/+3b+OjPD3m3b2LFpEzenp7k3N0fhli08sXUrd2dnuXP/Pvfm5/n92Bg1BQV84LvHzEKYa3CzwuNPZ+G9+g2zf1/AVJZF7g82M/7x12v0pIsJdPK0Vy3q2FXP5WDnp5Y04mxt4xwta9KBlZ14mQr6OH2yA/ydcaCzHT7/Ilad7DZ7O4136nAMJZ+iGnQ0YHVo/1er7bjqzPSfWr6sHSdbyHe28dKJDxNul5WWQRDWmg3/5j6TvYOHqsqnE5o19It9+3j5qaeoMJn4kcnEmQMHsOTl8fMnn+RQdjav7dvHP5q1keinfrfgM9k7FpWbuSMNRYHJP88zM/6Q+6MP2bR1ffoGlSEHvTfAlLfnkd9bVaupqTDhvhSyFtRqO2cqoK9lsdXU2dSQMh2uogxx9pIbU0UtNnFpCinKhreksoBPfD7DHNRfpqf5w9gYCtC8fz8/zMnh9I0bPFhYoMJs5oXHH+dPHo8WAejzkRWh3KAHSoWsnelkbFVIz1TYsstYpQtzKrP3lhZ8oVbb6ak/GPzb0+fkenH9YndYSSPO1krMfmH01pHB7VPfi6s+uqtHVUvINwHesOsxyg/87oSzjUqzP10d5oL1NTqVNIML7/S4JSiLPg8AtnKKvH2c7gQUf5lVRXj7W5asjGLJo/1tdB/qXYex0qLer6QRZ2sevfrnSUjOauwuC3cTsXA636O/qo0yG3R26VyjLM0NKAjrlQ3/hn/s8/H+6Kjh2q379wFQgZGZGe7cv88D/9qo0a+/5rHMzGDe90dHg2upjISsJnN5FtlPZZC1M40nXthi+Gcuj6TiolPa6KSn/qDm5rJasFot9ObVBzveAGq1HVfrIa6fqsJqtWCxNNNPJWecr1KqLjDoaMBicTKsqsGyorqMbLVUmNxcONmRcPkAZSdq4W1dureIY7p0AKWogZd4y5/HiZsijr1ZE0yvKS8C70iosy09TLEJPCMDS6q3ePIElJC5vyVYrwMF8dOitZHL1UNP2xHof29JCgpAUbpoavdQ2daLy9XDucaSGHmHGPVCUXlN1DyCsJHZ8JZUJBZ0VpWqKOhnm1T06ic6M18+4Fb79IrKFXB9efqaDaP4wNxERTCfZm2426uCI3FFGeLs230Utx7i+VIYjDOFoZiP0NpzJPi3p69ZZ3EkVv6go4lBdOmX3FTU5bEHCKgY1XOZd84OgJKGonTR0W/hTEU5NrWDDsrIN4H3+p0w6bzcDb+UADHlKS3ATED5aXk6HQ5tDqwkRpqOQMCJqg7TbqlbsnLSo3Q1Ye0KWFVtuCqVRZZqgI6rbo5VFWiDD2UIx3ErDlgknyBsRDa8knouN5eCzIxF1lSi/Cw/n5G5eVyTUyssWQQidKSR82nWhtnvxgtn1x4gjpIyBE74XUjd5zQX0sASyg+PFFTVYWNmvZUUhbjPuwSiyjP4Ide9lVTW99JdFaYMYqWhc7GZ3LRb/K69FVIQitLFL492Be9xxklkN55JU7aDK3JXQVg/bHglNQs8m5vLH8bGIq6NikW6ovBsbi7tY+OrI9y3JPq8yVLdTwGrQ7OSAlZQrPIDLrIiQh23Fk221KcIY3AED5UUHy6DocQjDePJo/gtkLP+ebbWniM6RR0rLS3421G7i7qeXo6pnhWLmNPP+0WzpAQhldnwX8OVqa9IVxSezskB4OL4OL65uWD60OQkQ5OTwb99c3NcHNeU0tM5OaQrClemIq+EXnEGR/AA5oKysIQ97DIlkm+15dBhK6cIL/2nQkEDZQXR1+fEQn8fReli4AZLj2hLUB5lyMHxo1Ys54dRzEeosSWWBtDZZMVqtXC6n4Tmk2JhnNfS5sKOHndEV1DecZbhARWEdc+GV1IzCyoXPR5+uns3OzMy6B4bY2J2Nph+bWqKa1MhV97E7CzdY2PszMjgp7t3c9HjWbRGarUIddAv01gS6qBr3jQuaNXmdryYK1/njepQPrWkkXP26kXlxlNmgTkovNf4aDDx8hXFrLn+/GkvVZjCi47zvFpQQHjoe8fJFi3owdVuqAdVLaHxnNNwzVhedHnUkkbeCFMoqurh7p3YaZEYdDRowRktl2EZ4eHa3KMWYh8zoMVPWYE56DbV6kB22hBShw3v7gPo9E5waPt2Xtm7F8ft23F3nXgsI4NX9u5ldHaWTm/k3Sb0fPHHmZUSlc4mK9hd1LX1Uum/Nny+mT5TKHACtI7yFE5adfNGmrsotCBWiyIrp6f+dVyVxhD08MAJ1e3Uwtv9v41XvtLVxKmCULrquczpdjdnlujuMwYFhIIeHMetfNTopFVXD2oMN1s8eZQhBwO1LlwuZVFZCtHTYqFZXix5fiowD5XIGFFVS3i+2BQhuEQQUgPZYFZHsm4wG23boI1ArF0xhOWvxRKE9UZKbzALMP3gIc2ffc4ln4/awkJ+U1xMdUFBML26oIDfFBdTW1jIJZ+P5s8+TwoFBQSj+dxXO+LnXWcEXItFVdHXJaUyNbWVy1qLJQgbhZR68x+o8K5ngvobt2gfG+eL2TnmlDTmlDS+mJ2jfWyc+hu3eNezdmdJlTY6DZPxqlqNvbUSk7ePjs61kWm1GTj7lrZQ+E1ZsKonsMHsO2eXvrBZEDYKKePuW08sWusTmC8SBEHYoERz94mSEgRBENaclJ+TEgRBENYfoqQEQRCEpEWUlCAIgpC0iJISBEEQkhZRUoIgCELSIkpKEARBSFpESQmCIAhJiygpQRAEIWkRJSUIgiAkLaKkBEEQhKQlJc6TCmdzWhrPZ28nE/jY5wPgudxc5oCPpqb5ZkF24xYEQUgGUkpJbVLAZsrhJ2YzD1WVTyYmyPQfD1GYlcmzOTkcz9/NBx4Pnd612wldEARB0EiZDWbX86GHgiAIG52U3mB2kwK/+m4hO9LTabt5kysTE4sUFMBDVeXKxARtN2+yI11TapuUCAUKSYHN7qL7XKMclrgEEqkzVS2h8ZzUrZAcpIS7z2bKIT8ri9dv3mRyfj5u/sn5eX53+zbN+/djM+XwrmciYr7svZnkFGeSsU1h5ssF7l6ZYX46+Q3T8POqADx9zRx3DK2JPKpawglnGxXe84ZzswJHyx9UQrIOn38xaY+ZL2100lppjpq+mnWsVtvpqT/4yO63VgQOgjzd8FsGEzyteC3bRfj2bHgltTVN4cdmMx0jI9ybn+f727fz15kZ9m7bxo5Nm7g5Pc29uTkKt2zhia1buTs7y53797k3P8/vx8aoKSjgA989ZhbCXIObFR5/Ogvv1W+Y/fsCprIscn+wmfGPv16jJ11MoJOnvWpRx656Lgc/dLWkEWdrG+doWZOPtezEy1TQx+mTHeDveAIdy/D5F7HqZLfZ22m8U4djKPkU1aCjAatD+79abcdVZ6b/1OrKGlTwJi99LS8G76W1fRvdxUvr0AEUZQjHcSsOCLbHysga/X1MlI6TLeQ723jpxIcJv6tr0S7CyrHhW+mZ7B08VFU+ndCsoV/s28fLTz1FhcnEj0wmzhw4gCUvj58/+SSHsrN5bd8+/tGsjbo+9bsFn8nesajczB1pKApM/nmemfGH3B99yKat69M3qAw56L0Bprw9j/zeqlpNTYUJ96VQR6pW2zlTAX0ti62mzqYG6Vx0lJ14mQqTmwtWY6erKF00Wc/jNlVy5s2aNZRwZVGUIc5ecmOqqMUmrsiUYMNbUlnAJz6fYQ7qL9PT/GFsDAVo3r+fH+bkcPrGDR4sLFBhNvPC44/zJ49HiwD0+ciKUG7QA6VC1s50MrYqpGcqbNllrNKFOZXZe0sLvgh33Xj6nFwvrl/sDitpxNlaidkvjN46Mrg46ntx1Ud3a6hqCfkmwBt2PUb5gd+dcLZRafanq8NcsL5Gp5JmcOGdHrcEZdHnAcBWTpG3j9OdgOIvs6oIb3/LkpVRLHm0v43uQ73rMFZa1PuVNOJszaNX/zwJyVmN3WXh7rcczQcUvLf/rYj3V5QuOvotnKkox6Z2GPOUvso5fdu6nYZ3K5JbLd77EHq2UD0G8nCiPeH3MS6d79Ff1UaZDTq7dNYkS7caheRnw7fmxz4f74+OGq7dun8fABUYmZnhzv37PPCvjRr9+msey8wM5n1/dDS4lspIyGoyl2eR/VQGWTvTeOKFLYZ/5vJIKi46pY1OeuoPam4uqwWr1UJvXn2w4w2gVttxtR7i+qkqrFYLFksz/VRyxvkqpeoCg44GLBYnw6oaLCtqh2Cr1UbjJzsSLh+g7EQtvK1L9xZxTJcOoBQ18BJv+fM4cVPEMd3Ivqa8CLwjoY6l9DDFJvCMDCyp3uLJE+g8zf0twXodKIifFq2NXK4eetqOQP97S1JQ4Ldy2j1UtvXicvVwrrFkyc+qCVKAGS/XP4xeVwMfXsOLmfxS3f3NRzjzr/CO1V9XLZfxHqiPKUci74Nabaenp8FQj9a34XkbS3sf46AoQ4x6oah841iIQnQ2vJKKxILOqlIVBX1XpKJXP9GZ+fIBt9qnV1SuwMjY09dsGMV3nGyhz6OT2W9tuNtDI3FFGeLs2314TYd4vnRR0YtQzEdo7dE6yZ76g3h1nW2i5Q86mozpl9xgykPvNFQ9l3nn7IA/Txcd/V44UI5NXQhacN7xO2HSebkbfikBYspTWoAZo/LrdDg05RgrTYfN7sLl6uFMhYd2y7fsaLuagorbU9GGy9Wz9Gi6PXmYEspoYpeuUVR1mAs6i0MZcvBOvzeqCy2R9yGQR3U7DXWiDDlwrEKgS8dVN5gKKFUXgnNoR48vbjNh/bPh3X3P5eZSkJmxyJpKlJ/l5zMyN49rcmqFJYuAobOM8bH5rQ2z320Szq49QJy+0xA44XeXdJ/T3CUDSyg/PFJQVYeNmfVWUhTiPu8SiCrP4Idc91ZSWd9Ld1WYmypWGvrgBDftFr9rb4U6Q0Xp4pdHu4L3OOMkcZfVnXG8RI9aCxGm9L3jhI8BBkY8ELC4wt+dRN4HtDzuSx08srGvfwAy+GjuJqwRG15JzQLP5ubyh7GxiGujYpGuKDybm0v72PjqCPctiT5vslT3k2Z1VNRpo+KAPRGr/ICLrIhQx61FTi31KcIYHMFDJcWHy2AocSslnjyB0fZZ/7xKa88RnaKOlZYW/O2o3UVdTy/HVM+KRYfp53kizfHEJIG6Kjt8CBMeRgdJzEUQg5jv2zI9loIQjw1vG1+Z+op0ReHpnBwALo6P45ubC6YPTU4yNDkZ/Ns3N8fFcU0pPZ2TQ7qicGUq8kroFWdwBA9gLigLS9jDLlMi+VZbDh22corw0n8qFDRQVpDIqH4x+vsoShcDN1h69FaC8ihDDo4ftWI5P4xiPkKNLbE0gM4mK1arhdP9fOv5JOO8ljaHs1R3Vby6CgVWhM2bhblkITA3eI2PIpklibwPq/1ORiKCRShsPDa8kppZULno8fDT3bvZmZFB99gYE7OzwfRrU1Ncmwq58iZmZ+keG2NnRgY/3b2bix7PojVSq0Wo03mZxpJQp1PzpnFBa2Bux1z5Om9Uh/KpJY2cs1cvKjdexxGYTwh0UomWryjm4FyHWtLISxWJzZCEfq9NgIeHvnecbNGCHlzthnrQdkJwGq4Zy4suj1rSyBthCkVVPdy9EzstEoOOhmDAAcsIhdaUhxZiH29ey2Z30R2hTQOE6urXBjmClqW3LzgnGEBRDhqCV9RqO3VFimEZgDF//Pchap5qu+FvML6PqlrNG92hZ4z3d4CyAnPQlSw7ZGxsNry7D6DTO8Gh7dt5Ze9eHLdvx9114rGMDF7Zu5fR2Vk6vZF3m9DzxR9nVkpUOpusYHdR19ZLpf/a8Plm+kxtVOjyDToaOIWTVt08geYuCi2I1aLIyumpfx1XpTHkVwucOBIsLxiC7P9tvPKVriZOFYTSVc9lTre7ObNEd1/HVTfHqrQJ8OBEvt+99lGjk1ZdPagx3Gzx5FGGHAzUunC5lEVlKURPi4VmebHk+anAPFS8MWIwsOR6dHvBUFc9veirf/j8ixztWjx/pnouc2HcgsvVYMgbK+Q+kfdt0NGAZcROjz6P28nRpujvY8PZO9z1QlHwTvH+1url+WJTzHoRNg6ywayOZN1gNtq2QRuBldiFYKOyUuuploPN7uIYyfm+LXd9mpDcpPQGswDTDx7S/NnnXPL5qC0s5DfFxVQXFATTqwsK+E1xMbWFhVzy+Wj+7POkUFBAMLrKfbUjft51RsBNVFQVfV1SymIrpyjaPNEqEn1pQHJQU1u5rPVpwvokpVr5gQrveiaov3GL9rFxvpidY05JY05J44vZOdrHxqm/cYt3PWt3llRpo9MwGa+q1dhbKzF5++joXBuZVpuBs29pC0M30PY9K4HS1bQ2a39stVSYYi8SXisCO2GEz7MJG5eUcfetJxat9QnbskYQVgP9VlrJvNu8sDGJ5u4TJSUIgiCsOSk/JyUIgiCsP0RJCYIgCEmLKClBEAQhaRElJQiCICQtoqQEQRCEpEWUlCAIgpC0iJISBEEQkhZRUoIgCELSIkpKEARBSFpESQmCIAhJS0qcJxXO5rQ0ns/eTibwsc8HwHO5ucwBH01N882C7MYtCIKQDKSUktqkgM2Uw0/MZh6qKp9MTJDpPx6iMCuTZ3NyOJ6/mw88Hjq9a7cTuiAIgqCRMhvMrudDDwVBEDY6Kb3B7CYFfvXdQnakp9N28yZXJiYWKSiAh6rKlYkJ2m7eZEe6ptQ2KREKFDYUNruL7nONMQ9dVNUSGs+56LZXP0LJIpOIvEJ8ltTuKVTfyfY9pIS7z2bKIT8ri9dv3mRyfj5u/sn5eX53+zbN+/djM+XwrmciYr7svZnkFGeSsU1h5ssF7l6ZYX46+Q3T8POqADx9zRx3DD1yWfRnGAVQPZc53fDbR3LYX+AU2rVAVUs44Wyjwms8pl07Nr6eg0qojZL5fKdIbahnqe9W4GDD5b4DarWdnvqD30qGtSKVv4dobHgltTVN4cdmMx0jI9ybn+f727fz15kZ9m7bxo5Nm7g5Pc29uTkKt2zhia1buTs7y53797k3P8/vx8aoKSjgA989ZhbCXIObFR5/Ogvv1W+Y/fsCprIscn+wmfGPv16jJ11MoLOjvWpRB6d/8dWSRpytbZyjZU0+ZIMs/o77jJNH8mEqyhCO41YcAI/4BNyyEy9TQR+nT3YE7x3opIbPv4hV12Y2ezuNd+pwDCWfohp0NGB1aP9Xq+246sz0n1q+rB0nW8h3tvHSiQ+X9D4Glb7JS1/Li8H7a99BG93FS1d8q/V+JPxtptD3EI3kkGIVeSZ7Bw9VlU8nNGvoF/v28fJTT1FhMvEjk4kzBw5gycvj508+yaHsbF7bt49/NGsjmU/9bsFnsncsKjdzRxqKApN/nmdm/CH3Rx+yaev69A0qQw56b4Apb89ai4KiDHH27T68pkpqbGstzeqhqtXUVJhwXwp1PGq1nTMV0Ney2GrqbGpISgW1GijKEGcvuTFV1GJbgout7MTLVJjcXLAaFaSidNFkPY/bVMmZN2tWQ+RVI1W+h1hseEsqC/jE5zPMQf1lepo/jI2hAM379/PDnBxO37jBg4UFKsxmXnj8cf7k8WgRgD4fWRHKDXpiVMjamU7GVoX0TIUtu4xVujCnMntvacEX4e4KT5+T68X1i91CJY04Wysx+4XRj8AMboP6Xlz10V0eQRPfG3Y9RvmB351wtlFp9qerw1ywvkanbgRY4T3P6XFLUBZ9nqgMjuDR/Rlw/1y4foi6SnMEKzAkIxhdY9FcR/rre968tChPeBuo7sv0RxA1Xh1Fk33AVk6Rt4/TnYDir8uqIrz9ttwgMQAAIABJREFULUtWRrHaQfvb6D7U10+stKj3K2nE2ZpHb7x2XCRnNXaXhbuJWFmd79Ff1UaZDTq7dFYSka2hgNL39r8VUSZF6aKj38KZinJsaocxT+mrnNO3odtp+M4ivUPx2j30vKG6DeThRHvC3yaQEt9DLAtxwyupj32+YJh5gFv37wOgAiMzMyiKwgP/2qjRr7/msczMYN73R0eZU9IgPSOs5NBLYC7PYuuudACeeGGLIdfM3Yd88ceZhOXVu3v0L1adWUHVKZGQW6UKx1AEt4CjAcvZ6C4FA7ZabQTaEHI7xS1fSaPsRC28XYVVl37M+Sp3Gn7LQKCWihp4abwZq3Uo+NEee7OGTl0nsLgSCjDj5fqd0CXFfIRjeU6sVv/vlLTghzN8/kWOd+k7j0ucK9Bclx1X3RyrO8TzpTDo7wPUkkZePADudu05wu1Hfbnfqg38dRlJ9pryIvBeDX2cpYcpNoFnZIClOjhit0MNdlc95v4WrP5O0Nb4KqVq7LRInYZ+4OPpa16SggK/RdNeTk9bL5XE7pgVZYhRL1SU10BXjHclKJz/nfkwev0NfHgNb8Uh8ksB/20V8xHO/OtlTlurdJ18Peca70SVLZF2D7xDnr7mYN2qJY2csIFjKd+m/tk28PcQi9TwH4SxoLOqVEVBr8JU9OonOjNfPuBW+/SKyhUYDXr6mg0vbsfJFvo8Opn9o253e2hEGnILaC9gPBTzEVp7enG5euipP4i3/z3dyDux8gcdTcb0S24w5RlectVzmXfODvjzdNHR74UD5VHdOKpajb21EtONHsNoW1WHuXCyw5ivrmhRXSlDDt7p94ZcRZ3v0e81UXy4LJin7PAhTLgZ6Ixy/wjlfps2WCy7Zrl6x3W9DgBe7oZfSoCY7VBagJmA8tPodDi0DiNWmg6b3YXL1cOZCg/tlhexWi3LnrtUupqwWi1YLE48FW24XD1RI8k6rrrBVECpuhCcKzl6fLF8AOzJI7H5fhO7dC+oqg5zQd+Bhr8/YSTS7oE8qttpqCdlyIFjicEvqfA9xGPDW1LP5eZSkJnB+6Ojy/r9z/LzGZmbxzU5tcKSRcDQacR4mf2jbrPfVRDOrj0ER4rRiDQ5231OM/EHllB+eKSgqg4bM3tH4k72agrzSPBvT18zR8M7Qe84hv47Rl0NjHgAM/mloAwN8dF1LxXFhylVBxigjOeLo7uFVqUNwmUPPOcyrKZoRG2HwQ+57q2ksr6X7qow10qsNPSBCG7aLX7X3gpNpitKF7882hU/MMCvbAfjFXhnHC/RIwxDhA0EIrSN/v1Z9B0l0u5oedyXOlhO+6bi96CqJcCHEYve8EpqFng2N5c/jI1FXBsVi3RF4dncXNrHxldHuG9J9PmDpbphtNF3hd8NEBhXxyo/4LorItSBaeb+Up9i9UNsNTdPJTW23zJw5zDFpthuoaWwUm2gzTtUaiPcoaVEtMVuh4AFctY/V9Dac0RX37HS0oK/HbW7qOvp5Zjq+VZRewa5dXMXK9L+CdSfZjF4GB0kMXdJDGK2e8m3KzsVvwdFif7Ob3h335Wpr0hXFJ7OyQHg4vg4vrm5YPrQ5CRDk5PBv31zc1wc15TS0zk5pCsKV6Yir4RecfwTpOaCsrCEPewyJZJvteXQYSunCC/9p0KT52UFiYxkV4gYMmpy+DsjQtGLReU1WkcV5jpJrNyVbwP9bxWli4EbLDmiLdF2UIYcHD9qxXJ+GMV8xBApFisNoLPJitVq4XQ/VLZpLuJzjcvriUsbnZqLue0I9LdgtVqiu/AgqhW66Pni1F8osOI9o8UQ5p4G/POF1/gokvmWSLuv9ve5xHuul+8hGhteSc0sqFz0ePjp7t3szMige2yMidnZYPq1qSmuTYVceROzs3SPjbEzI4Of7t7NRY9n0Rqp1SL0ob1MY0noQ6t507iwMzC3Y658nTeqQ/nUkkbORVgBHu/FCfiTAx9mouUrijno31dLGnmp4tGtAowqY7Wd1koz7nZj5FnHVTccsPBSsQn31ej+8NVqA+M9tKCA8JD/jpMt9HuLOOZqN9xbW93vNFwzlhe9HdSSRt4IUyiq6uHundhpkRh0NGjzSS2XYanKlICi0ELsE5nXKiswB93Fiez8EKq/XxtkC1qb3r7g/GgARTnIMV1Yulptp65IMSwNMOaP3+6x3k3937Bynfp6/h7iseHdfQCd3gkObd/OK3v34rh9O+6uE49lZPDK3r2Mzs7S6Y2824SepUTvxaOzyQp2F3X+CCiA4fPN9JnaqNDlG3Q0cAonrTofsOYmCEXoBaOp6l/HVWmMpgr3ewfDbv2/jVe+0tXEqYJQuuq5zOl2N2eW4e5bLoOOBiwjdnr0Mqoew0LOIJ1XcdfVU0Qf7/jDvqOxkm0QjY6rbo5VaUEBwUl7v3vto0Ynrbp7qzHcbPHaQRlyMFDrwuVSFpWlED0tFprlxZLnpwLzUImMjVW1RJsruZ54JImh/np60b+Kw+df5GjX4jk11XOZC+MWXK4GQ95YEXeJtHvEd9Pt5GhT/G9zuazn7yEWssGsjmTdYDba9jnC+iXWjgPC8tdirQY2u4tjyLe32qT0BrMA0w8e0vzZ51zy+agtLOQ3xcVUFxQE06sLCvhNcTG1hYVc8vlo/uzzpFBQQDByJpZZLqwvAu6RoqpXU2bj0qVQU1sJ4fNHa0D05QLCoyJllBTAAxXe9UxQf+MW7WPjfDE7x5ySxpySxhezc7SPjVN/4xbvetbuLKnSRqdhUjq4TsLbR0eEdQzC+mXg7Fv0s/626lltArsShM8frY0wtVQEo9+EtSBl3H3riUVrXsK2aREEYXXR766RzDvQbySiuftESQmCIAhrTsrPSQmCIAjrD1FSgiAIQtIiSkoQBEFIWkRJCYIgCEmLKClBEAQhaRElJQiCICQtoqQEQRCEpEWUlCAIgpC0iJISBEEQkhZRUoIgCELSkhLnSYWzOS2N57O3kwl87PMB8FxuLnPAR1PTfLMgu1ILgiAkAymlpDYpYDPl8BOzmYeqyicTE2T6j0kozMrk2Zwcjufv5gOPh07v2u2ELgiCIGikzAaz6/nQQ0EQhI1OSm8wu0mBX323kB3p6bTdvMmViYlFCgrgoapyZWKCtps32ZGuKbVNMY5VFjYGNruL7nONMQ8fVNUSGs+56LZXP0LJ1pZE6mU1ylvp+25UlvTeruP6TAl3n82UQ35WFq/fvMnk/Hzc/JPz8/zu/2fv/WOiuvL//8cFAfVb5V2HmYribrLWbnRcXCD80bXVd96MaWTGbtIdCP98BPzn/Y/bxWZX3smCRugfHTe7zrv1bxH/qWFo05UBPrvCJrY1/cMAkTC4rrHZbwpDewfK19XQBZT7/ePOnbl3mB93EHCA80hMZO65577uOeee1znP8+vBA5r276fKauFjeSpuuPx9uViKc8l5SWLmuwW+vT3D/OPM75jGnlcFIPc1cco7tOq26M/t0VDkm5yv/xODq3Aqq3by6otAUUo409ZKRUg9mjxuWigy/edq8Q5tiPbkkoiXbnpWu2xrhzYutQwrbg/ddQcNv72o7zNdVuJ7Xvclf2uWxNs2G58Gg3w/P89Pt21jc3Y2P8vP57DFwo7cXAD2bNnCYYuFvS+9BMD38/N8Ggzyts3G1qzF3anszRKvvJ7H9Ogs3/x1hqxNCgU/37yq75YKRXHzQZefD9yLW1CKfJNzzuO4XE6czTehotVwIvBqYrDF2aSeVtu2OseqS9IQ3lMuTpzyropT1FN25l0q6OP82Y7Ib4oyQns4LVwuJ+f7oaKlnYaStdkKXg0GvfWR9HJeHUFRZPqao2m42pV7x9lm+nFw+kxZWvdpvR5/rc1gv9PZhlzRuqTe0EqVb9N1yzJ8z+veSR3O384zReGrKbU39NvXXuPdV1+lwmrlP61WLhw4gLOwkP/+yU84lJ/P7157jf+yqS2Br8Ky4OH87Yvizd2ehSTB9N/nmZl4xpPxZ2zauja1QWnIS+8oWAv3vmhTkKQhLn3UR8jqoLrqRVuzciiKm+oKK4Ge5C3MgUvdBLBSfDS9Ck/w4pCkIS71BLBW1FCVRsVcduZdKqwBrrmMPWdJ6qTRdZWA1cGFi9UrYfKKsRzf87qX+/KALycnDWNQ/3j8mM+CQSSgaf9+fmGxcH50lKcLC1TYbLz1yiv8TZbVGYCTk+TFiVfS/JECeTuyydkqkZ0rsWWnMUkX5hRmv09v8kVsd1/ua2O4uC4iC0XClTTQ1uLAFjZG3602dLvrevHXJZYMIpJXKOb3JPFr951pa8VhC19XRrjm+h0+KcsgZZ2fcEZs0YdJyOAYsu5PTT65NnyIWofNYEesjWA87juR9KL/fe/FnkVhYvNACdykP46pqdIoke0DVeXYQ32c9wFLaNukzhs3Hn8dB8PXY49AT5VusZhJxwHKEpYHA6XvcUVve6DNUK6X8r6pSKscfASnU9iX0h7fdforWymrAl+nTtolvgyoNVpC/R/G/TYkqZOOficXKsqpUjqMYVKkZ7x3N5OesWVIC8OZdtN1C2D6e74V/+7135P6YnKST8bHDb/df/IEAAUYm5nh4ZMnPA2vjRr/4QdeDkuAAJ+Mj0fWUhmJfty28jzyX80hb0cWP3pri+GfrTyei0tMaUMb3XUHGbka7e73FtZFPnwNxe3B33KI4XOVcbvVg956nM42RhQlElfCQlRVo7bg9LJTivgBys7UwEe66yE7J2O69ZK9ntN8GJEtAtg5mao1WFqEjRDfPoz+JNmOcbKwG5fLGZEuFLeH7tZjyO2VUWmk+Sa22p6IdNlxJwDWQxwp1aVdSQPHD5CwF6M5KH0eXMORdh4ks7263A6hsZSVbPXFOuwE6L00YPq5WuVi62+O2D9QFLXJTLrFYiYdTZUH2zEu/Bouuyojzw0dqEsqNZtN52TEtV9xUxZTDhLZp58wY8YeSRpiPAT2cpM9n3CZH741kDDIwK27hLCxW/cOK5WeittDd3e9oQy5PoIjVaRXt+jeLdX3nIh176TisaDrVSmShL6YK5hr2M5895T77Y+X1S6tNSX3NRlatB1nm+mTdTYrJZyptBNoj8oC0W618UNMhGQ7Rkt3L35/N911Bwn1X4+0zszGP+htNF7vCYC1EL1oqMg3uRyuYNXWYAgOlCeUQRTFjafFgXW02yB5KMqI0Ykqbjy19kVpJQ15udwfikotvuv0h4xyWdnRQ1gJMOBL8Pw48T5PHiy2Xe25hiZ0X61mv3SQ2nC++P3dlN2p5MSJxvTyprQIGyCPRSs8nzfs2M2mWywm0tFUeVBGuKZrsad67nKU9UT2U1WOPaYcJLJPK7Pp2KM6xiJKlYXUY0N7CzE3f8fKTl2CrkR6amGUQJvB+UhDXrwJetqJSOd7TsS6l/veLCigKDdnUW/KLL/avZuxuXn804+W2bI4GCqXJIWh9CjFVrCFu9qx7NwLpBgrNkhmYSmi60pYtkkj/tiZgooyYgxsoregOsxjkb/lviZOxLbMQhMYqvQkaTUwJkO4xSkNDfH5cIiK4qOUKgMMUMaR4sSyyorkQazt2nvGeYZeIqvy+DlZ+weqfDrJzMxzfbcYDjlw1PXSVRkj45hMt9jyI0nm0jF1eVicFsmeuxxlPZH9ZyrthPqbjeUglX2kaU/YSQ+mMvDhBCESz1DUGWjokaxIeobfMdDTwVL6MUv9nhPpfeveSc0CbxQU8FkwGHdtVDKyJYk3CgpoD06sjHHPSeIxhPQKltbqrahVW1Ja+ztZ/JqkZCdAuzM8DuX24K9N9y1Wfsr5wK27hCocVFf9iYGHRym2arLK8z9vufIgHh1nr1Lmr+PkxWp8MWMiyZ6rtdovhccdWrqPRcfCnsOeZOm4nOUhHsuRzqr9Whl/vnKw7Pk+OIaMQ+3pDcX3umrPVWZ8kCWNY+pJav9zTvJd7u953ct9tx/9i2xJ4nWLBYAbExNMzs1Frg9NTzM0PR35e3JujhsTqlN63WIhW5K4/Sj+SuhlJzzAaCuKncm1l51WM+FW2g4dVeXYCdF/LtrKLysy0xJcJpLYqNoR/piJzl60l1erH3qM9GAu3uXPg1T3SlInje0BJHt9dKpvGs+VhrycOuHCeXUEyXZMnV2VRrrFiy9hOpotDzHyHxAen7vL5/Geu5xlffAWw2HJr+zoIazxnpnKvnTtSdCLjkWSOhkYJYlMp02suG7s+a1Eeq50/ZLgmYlY905qZkHhhizzzq5d7MjJoSsYZGp2NnL97qNH3H0UlfKmZmfpCgbZkZPDO7t2cUOWmVlYnQW60YL6rmFdTPXF6AwbLVxHfwib433DOgWlpIErcXZESFXYNA1aK9hm45ckW0QfV0oaOF2xeqtiE9ro9tDisBFoN84q67gTgANOThdbCdzpiBdlJN6VyAPjM9RBdVNT/n3X6ZMV7JXvhcc2Uj9XKWngg5iBc0WR+fZh+ukWS7J0NFMeJOmgYeKM4vZQa5cSTmJ5nnReHFd4anhxDdXF8af/p7IvHXvKimwRudvMzg8dZ5vVySb+PxgcVaSXGuqLjO+atXdxGqS2P1kZiV0XtVyOTJISz+5c93IfgC80xaFt2/jNvn14HzxIuevEyzk5/GbfPsZnZ/GF4u82oeebv8wsl6n4Gl3g8VPb2osj/NvI1Sb6rK1U6MINeus5RxstOm1Z7WZ3gDaIKnXS2F5Od937+B3GaaKxunFk2mr43lTxS52NnCuKXlfkm5xvD3BhmeQdMwx663GOeejW2xheyLmop+S7Q6C2Djt9XE4x7Xs58yARHXcCnKxUB9WTySLaoHZxi4MLF8c40diZOm+GvAzU+PH7tangxl0r0kq3RYkTPx3NlgdFvsm1CSd+f33kt2RT3zV7l5rOie0PcC1OOTBjnxl7FKVEHbMbNtOPUtFk2s8b2mjp7kWfdCNXj3OiM2vR+65UesYtI4E2TjSmrluWG7HBrI5M3WA2dvscwdpHax3TXpm0QhEsL8m+pefdzsjwnJIG2loK6U21JnAVqPL4OUnm1x0beoNZgMdPn9H09T/pmZykZs8e/lhcjLuoKHLdXVTEH4uLqdmzh57JSZq+/mdGOCggMiMnmUwlWFtokoom4wlWiVJ1wkT/9ZX9lqprHBA7fvQCSLbcYa2wYZwUwFMFPpanqBu9T3twgm9m55iTspiTsvhmdo724AR1o/f5WH5xZ0mVNrQZFuJF1hmE+uiIs65HsHYZuPShuohyjW11s5aprlm8Zme50XpkseNHL4SqGiqsyRcJZzobRu5bSyxaa2Ji2xiBQJAYbZuwZNOjl1Pue9Hot0VLNUaVKSSS+4STEggEAsELZ8OPSQkEAoFg7SGclEAgEAgyFuGkBAKBQJCxCCclEAgEgoxFOCmBQCAQZCzCSQkEAoEgYxFOSiAQCAQZi3BSAoFAIMhYhJMSCAQCQcYinJRAIBAIMpYNcZ5ULJuzsjiSv41c4IvJSQDeLChgDvj80WP+vSB2pRYIBIJMYEM5qU0SVFkt/NJm45mi8OXUFLnhYxL25OXyhsXCqd27+LMs4wu9uJ3QBQKBQKCyYTaYXcuHHgoEAsF6Z0NvMLtJgt//eA/bs7NpvXeP21NTixwUwDNF4fbUFK337rE9W3Vqm5IcM75RqfL46brSIA7rew4yLQ1flD2Zlg6CzGNDyH1VVgu78/J4/949pufnU4afnp/nfx88oGn/fqqsFj6Wp+KGy9+Xi6U4l5yXJGa+W+Db2zPMP17fHVPtpM/lJPb8LAC5r4lT3qHlfZBJ4h0xrrg9dNcdjIZJci6RmfiXOw011tOZSAIBbICe1NYsibdtNj4NBvl+fp6fbtvG5uxsfpafz2GLhR25uQDs2bKFwxYLe196CYDv5+f5NBjkbZuNrVmLu1PZmyVeeT2P6dFZvvnrDFmbFAp+vnlV3+15URQ3H3T5+cBtvhUrSUN4T7k4ccq7rJWgIt/knPM4LpcTZ/NNqGg1nFC8mpSdeZcK+jh/Vj1ivLShDX8ttIftc7mcuHoKOX2mLGp/Gmm5UmkI0HG2mX4cBtsEgrXMundSh/O380xR+GpK7Q399rXXePfVV6mwWvlPq5ULBw7gLCzkv3/yEw7l5/O7117jv2zqiZZfhWXBw/nbF8Wbuz0LSYLpv88zM/GMJ+PP2LRVaIPLgTTkpXcUrIV7V/3ZiuKmusJKoEftiWh/h/qv49M5FKmz8YX19JIhSUNc6glgraihSkhognXAupf78oAvJycNY1D/ePyYz4JBJKBp/35+YbFwfnSUpwsLVNhsvPXKK/xNltUZgJOT5MWJV9L8kQJ5O7LJ2SqRnSuxZacxSRfmFGa/T2/yhaK48fjrOBh+SKy0pJQ00NbiwCZFnaL+iGi9XHV+whk5RlpRRrjm+h0+KctwvDR1vfjrohKbdr/DJi26D4yS0gBlKZ8V752SHWkdkcNCMb/HvPeidElit5k0UV+uHHuoj/M+QNfmUB1mfKeULC21tLo2fIha3fHley/2pJ2GsFh2lPvaGC6uM0iT+K7TX9lKWRX4OnXlARMyYOl7XNGncaAtGm+CfID4+Wk2XCyrks+CNcO6z7EvJif5ZHzc8Nv9J08AUICxmRkePnnC0/DaqPEffuDlsAQI8Mn4eGQtlZHoh2crzyP/1RzydmTxo7e2GP7ZyuO5uMQobg/d3fXY+puj0tJHcKRKd731GHJ7ZeS6s/kmttqeRfKYZK/nNB+qYZxtBLBz8mI1AIPeepzONkYUhZGrqoyl9QzKztTAR5Xh+5roD9k52fZe0sHtZM/SHJT+nQaKksRXVUOFNcC1sNymvbe/5RDD53R24eCCzi4zdiezE6C63A6hsUiFKEmdDIyq93V53HHNTZaWAJLtGCcLu3G5nEklvlS2lTa00V13MPIMl8tJb2FdpLKOxCMNMR4Ce3l17COSItmOceHXcNlVGSlXoQN1hnJltvylU071rFY+C9YO695JxWNB16tSJAl9ValgaEAnZOa7p9xvf7ysdilKCWcq7SiBNmMlN+TF26lKT55aO3Jfk6E1Kg15udwfWiTxKPJNLl8aUMNInXT0h+BAeUoZaNDbiHdIq6RV+QhrIcnEt6TPKi3CBshjA5HwPq+xspZsx2jp7sXv76a77qBBXtPSJdBea7Troz5C1kMcKTVvdzI7tR5caOKh4d18jS7O9clI9nr8/u6Eziph2igjBoe7lDTUZMfYvO8420yfvHiyTsedAFiLKFUWTI+BKcoI13Q9lthyZbb8pVtOo89fnXwWrC3Wvdz3ZkEBRbk5i3pTZvnV7t2Mzc3jn360zJbFofQoxVYI9HQQt/1gqOyN1wfGZMDG7lJgMPyjrkeQLrEz7hRlJPkNyZ41eIvhkANHXS9dlfFnxeklHU2y6boSlsPC6WILS2mx7NQpcSntNpEm8dJ30FuPy6vFX09Xl5P+c9HKNCmhCR6mDpXctiR5n5BwxT2YMqD2/MV2GsoVJsuf2XCx6ukq57NgbbDundQs8EZBAZ8Fg3HXRiUjW5J4o6CA9uDEyhiXgWjSnJ0A7c6wzu/24K9depxaS/5SeKyhpftY0incWuu4olZtPWv9r8TjGVkrYnc8fI0uOrRxj5Y/MC7GOZadTMhnQeaw7r+u24/+RbYk8brFAsCNiQkm5+Yi14empxmano78PTk3x40J1Sm9brGQLUncfhR/JfSyMziGDNiKEkwfTnK9rMgGyIybbjYnoKocOyH6z0UrXzXu50ca8nLqhAvn1REk2zGqq0zemCpdYFntTvocdBLTapIwDfayM9GaK7M9OI04kq46RneXzweT2RBT/pZaTlc5nwVrg3XvpGYWFG7IMu/s2sWOnBy6gkGmZmcj1+8+esTdR1Epb2p2lq5gkB05Obyzaxc3ZJmZhdVZoKtp5zbH+4b1NorbwwfuhaTXWxw2Au1La9XHVgqSZFOlFdSZVqcrnm/lqVLSwAcxg+WKIvNtghpUG5vQKseE713SwBXd+NDz2q1NONBPfVfXP7XRUKJ7rmbf6J1F6Z3KwS0VbQKHteJdgy3VF6MzJvWUFdkikpeilNBwJfXODpJ00DC5QHF7qLVLken4ZsvfUsvpauWzYG2x7uU+AF9oikPbtvGbffvwPniQcteJl3Ny+M2+fYzPzuILxd9tQs83f5lZLlPVmWJjHrp1urw6DTgr8XVFpq/5uLnxER2S1Eljezndde/jd2jTphs5V9RGSzh+Rb7J+fYAF55H7hvyMlDjx+/XpgzLi8Zz1IkTxyJ/R6Y+S9H3PkfULtDGsTpAykLqXB67O+4EOFmpTjjQKuZGF3j8Pfh1zkDua+KEfnJL3LRc3nVUPtUQalt7cYR/G7naRJ+1lQpdOEUp4UixldBwWv0oFPkm1yac+P31kd9ipTez5W+p5XS18lmwdhAbzOoQG8wKtDEP2itTrufJBOJu4VTSQFtLIb1ivEywhtjQG8wCPH76jKav/0nP5CQ1e/bwx+Ji3EVFkevuoiL+WFxMzZ499ExO0vT1P4WD2oBokpO9Mvm6sIxBmxF6JzrFvbrGATE7ZAgEa5UNVYqfKvCxPEXd6H3agxN8MzvHnJTFnJTFN7NztAcnqBu9z8eyOEtqIzNw6UN1AWmGLf4sbWgzLphV3HhaHFhDfXT41N+0HS60NUICwVpnw8h9AsF6YNH6oDjbFgkEa5FEcp9wUgKBQCB44Wz4MSmBQCAQrD2EkxIIBAJBxiKclEAgEAgyFuGkBAKBQJCxCCclEAgEgoxFOCmBQCAQZCzCSQkEAoEgYxFOSiAQCAQZi3BSAoFAIMhYhJMSCAQCQcayIc6TimVzVhZH8reRC3wxOQnAmwUFzAGfP3rMvxfWwO7XAoFAsAHYUE5qkwRVVgu/tNl4pih8OTVFbvg4hj15ubxhsXBq9y7+LMv4QmIndIFAIHjRbJgNZsWhhwKBQJD/3DcqAAAgAElEQVS5bOgNZjdJ8Psf72F7djat9+5xe2pqkYMCeKYo3J6aovXePbZnq05tkxQnwhWkyuOn60rDsh24t9zxrVbca4FMe/8XZU+mpYNgfbEh5L4qq4XdeXm8f+8e0/PzKcNPz8/zvw8e0LR/P1VWCx/LU3HD5e/LxVKcS85LEjPfLfDt7RnmHy+9Y6ooJey2pnmP20N33cHo3/JNztf/iUEpa0nxrRfiHqueJK2WEv9Kpa12cOFSbRMI1hPr/gvYmiXxts3Gp8Eg38/P89Nt29icnc3P8vM5bLGwIzcXgD1btnDYYmHvSy8B8P38PJ8Gg7xts7E1a3F3KnuzxCuv5zE9Oss3f50ha5NCwc83P5etkjSE95SLE6e8piqn0oY2/LXQ7jyOy+VU//UUcvpM2ZLiWw0Uxc0HXX4+cK9sq7vszLtU0Mf5s+qx6qnSKl3bVjJtO84204/DYJtAsFFZ9z2pw/nbeaYofDWl9oZ++9prPHjyhLlnz/h/Nm2iZs8e/u933/H6jh0Ef/iB//Mf/0HH2Bh/k2W+mpriV7t3czh/OzenHxnizd2ehSTB9N/nQYEn48/YastetfdSFDfVFVZC/R/i01WSUmcjp1bNisxES5tAu9ajXFtpJUlDXOoJ4K+toerSgMFmgWCjse6dVB7w5eSkYQzqH48f81kwiAQ07d/PLywWzo+O8nRhgQqbjbdeeYW/ybI6A3Bykrw48Upa50qBvB3Z5GyVyM6V2LLTmKQLcwqz35uffBEr9SiKG4+/joPhB45cPc7/dEYrLWvhXmDIVHwDlEUksPMTTlocNvUVlBGuuX5nqAxjpTG5r43h4jqDfBYPpaSBthYHtrC9ekmttKEt8kzqevHXgdzXxCnvUNx7Y99XL+Eltb+qHHuoj/M+QNcJTpZWyWzT0vDa8CFqHbbIO+292LNyaeu7Tn9lK2VV4OvUvTsmZMDS97iiz4M4R8ynSut0w8WSrByo6aK+j8MmLUon0/ks2BCs+9z+YnKST8bHDb/df/IEAAUYm5nh4ZMnPA2vjRr/4QdeDkuAAJ+Mj0fWUhmJfrS28jzyX80hb0cWP3pri+GfrTyeizOH5qBs/c0RiWqg6D1KlQUkqZOBUZDs9XR53GnFK9nrOc2HuFxOnM42Atg5ebE6cr20oY3uuoOMXI1KY72FdZEKJaG9bg/+lkMMn6sMx91EPw4utKk2D3rrcTrbGFGUSNwRB+X20N16DLm9MvJMZ/NNbLU9XGkoScv+6nI7hMYiFaKZtEpmG4BkO8bJwm5cLmdSiW+50laShhgPgb28OvYRSZFsx7jwa7jsqoykYehAnSENzaZ1OnmiJ1U5ACg7UwMf6a6H7JzUXTeTloKNwbp3UvFY0PWqFElCPwKhYGh8J2Tmu6fcb3+83KYZKS3CBshjA5GffN5oBelrdHGuT0ay1+P3d5t2Vop8k8uX1DglqZOO/hAcKKdKWYhIY3Jfk6G13HG2mT458aQQRSnhTKWdQHst3iHNOQxx6aM+QtZDHClNYo/ixlNrX/RMacjL5f4Q1ooaqnSVV3L71QkNoYmHhmcsNa2iNo5wLTy+lTTcMqZtx50AWIvCjRJzY2CKMsI1XY8lNg3NpnW6eRJ9vrlyMOhtNF7vCYC1kL0m01KwcVj3ct+bBQUU5eYs6k2Z5Ve7dzM2N48/ZkxqVRi8xXDIgaOul67K+DPRBr31uLyqrFdrr6ery0n/uWgFERddL2MRBseYRhum9CjFVrCFpbJYdiZTJZM8c2BMBmzsLgUGTdgfJl5cS0orjdAED1OHWv60DVfcgykDas9fbKchDTGZ1mbDxeZpGuVAzYdok1BRRmLeJXU+C9Y/695JzQJvFBTwWTAYd21UMrIliTcKCmgPTqyMcSnQWs+Xwvp+S/exhNOmfY0uOjQtv+UPjL8g7T7xeEXmVDaZklbrmWTlQJOx7QRod4bHodwe/LWrbqZgDbDuv8zbj/5FtiTxusUCwI2JCSbn5iLXh6anGZqejvw9OTfHjQnVKb1usZAtSdx+FH8l9GohDXk5dcKF8+oIku0Y1VUJwmmyyfMwOIYM2Ipipz/vZWeydUEJ73ueZ0JZkQ2QGTfdlVBJZceypFW6LCVtzfbgNGIkM9DG6O7y+WAyG2LSeql5YqYcVJVjJ0T/uWjjQI1TIFjMundSMwsKN2SZd3btYkdODl3BIFOzs5Hrdx894u6jqJQ3NTtLVzDIjpwc3tm1ixuyzMzCi9k5Silp4IOYAWpFkfn2obamp42GEt1YTXg8gNE7S+4ZaJMMrBXvGuKuvhidYZjovo7+EDbH+4Z1RkpJA1fijP/oK7GE97o9tDhsBNrN93S0CQfqTL5wPGmm1ZIcrSnb0kvbsiJbRPJSlBIarqTe2UGSDhomFyhuD7V2iUCP2vs2m9ZLzROz5UCSbKr0F752umKDrjoXpGTdy30AvtAUh7Zt4zf79uF98CDlrhMv5+Twm337GJ+dxReKv9uEnm/+MrNcphqQhrwM1Pjx+7VpunJkDEWSOml0gcffg19Xwcl9TZzwJp6SbgafGjG1rb04wr+NXG2iz9pKRZL7Br31nKONFt14hCpPdoBupl1jezndde/jd0SneQ9663GOeejW36vI9DUfNzdmpKPjToCTleqEA61iNpNWiWxbTsymraKUcKTYSmg4rX4UinyTaxNO/P76yG+x0pvZtF5qnqQqB1JnI+eKotcV+Sbn2wNcEHKfIA5ig1kdYoPZxMTbZihT0cY8aK9MuZ4nE4i7hVNJA20thfSK8TLBBmFDbzAL8PjpM5q+/ic9k5PU7NnDH4uLcRcVRa67i4r4Y3ExNXv20DM5SdPX/xQOSk941lbgTupp2C8aTXKyV763NjY9jZO21TUO6L8uHJRgw7OhvoCnCnwsT1E3ep/24ATfzM4xJ2UxJ2Xxzewc7cEJ6kbv87G8sc+SKm1oMy7qVNx4WhxYQ310+F6gYWkwcOlDdQFphi3+NJO22g4X2hohgWAjs2HkPkF6LFrDEmdrHcHSEGkrECwmkdwnnJRAIBAIXjgbfkxKIBAIBGsP4aQEAoFAkLEIJyUQCASCjEU4KYFAIBBkLMJJCQQCgSBjEU5KIBAIBBmLcFICgUAgyFiEkxIIBAJBxiKclEAgEAgyFuGkBAKBQJCxbIjzpGLZnJXFkfxt5AJfTE4C8GZBAXPA548e8++FNbBztkAgEGwANpST2iRBldXCL202nikKX05NkRs+ymFPXi5vWCyc2r2LP8syvtDG3gldIBAIMoENs8GsOPRQIBAIMpcNvcHsJgl+/+M9bM/OpvXePW5PTS1yUADPFIXbU1O03rvH9mzVqW2S4kS4glR5/HRdaVgbh/UJDGRa3r0oezItHQRrmw0h91VZLezOy+P9e/eYnp9PGX56fp7/ffCApv37qbJa+Fieihsuf18uluJccl6SmPlugW9vzzD/eOkdU0UpYbfVfPjShjZaHDZjHPJNztf/iUFxoquBuEe0uz101x2MhnmOtEs379JBOwRR5KtgI7LuS/zWLIm3bTY+DQb5fn6en27bxubsbH6Wn89hi4UdubkA7NmyhcMWC3tfegmA7+fn+TQY5G2bja1Zi7tT2ZslXnk9j+nRWb756wxZmxQKfr75uWyVpCG8p1ycOOU1XRkp8k3OOY/jcjlxOpvU02jblu/YdEVx80GXnw/cS4vvee9fLsrOvEsFfZw/qx7RXtrQhr8W2sNp53I5cfUUcvpMWeSedGxfSt6ZpeNsM/04DLYJBBuFde+kDudv55mi8NWU2hv67Wuv8e6rr1JhtfKfVisXDhzAWVjIf//kJxzKz+d3r73Gf9nU3slXYVnwcP72RfHmbs9CkmD67/PMTDzjyfgzNm1dZW0wBkka4tJHfYSsDqqrXqgpGYWiuKmusBLoUXsi2t+h/uv4dA5F6mzklHfoBVoaH0ka4lJPAGtFDVVCQhNsMNa93JcHfDk5aRiD+sfjx3wWDCIBTfv38wuLhfOjozxdWKDCZuOtV17hb7KszgCcnCQvTryS5o8UyNuRTc5WiexciS07jUm6MKcw+735yRex0o6iuPH46zgYfuDI1eP8T2eStsXgGHKc+K4NH6LWYTNIWkpJA20tDmxS1Lnq4zfIiXW9+OtA7muKVORLvb+3sDWufKV/970Xe9T/fwSndc+Id9R6rB2LZLuqcuyhPs77AF07wlq4F4jvlJK9e6I0jdhc/ycGKIvIi+cnnJG4FGWEa67fGZxjrOwo97UxXFxnkCbxXae/spWyKvB16uRLTMiApe9xJc00hPhlzWy4WFLlkfY+Dpu0KJ30Um2qtBSsP9Z97n4xOckn4+OG3+4/eQKAAozNzPDwyROehtdGjf/wAy+HJUCAT8bHI2upjEQ/Ult5Hvmv5pC3I4sfvbXF8M9WHs/FmUNzULb+5ogkNVCUQsorLcJGiG8f6iy1HeNkYTculzMiRyluD92tx5DbKyNxO5tvYqvt4UpDCQCD3nqczjZGFIWRq6osFnFQz3F/x50AWA9xpNT4rmUHiPR2NLsv/Bouuyoj8YcO1NHlcUfvc3vwtxxi+FxlQsmzutwOobFovFInA6Mg2esNcelJ9u6J0jQekr2e03wYtq2NAHZOXqyOZldDG911ByPPcLmc9BbWRSrrSDzSEOMhsJdXxz4iKYnSUMsjLQ1T5WU64WIxk0dlZ2rgI931kJ2TMbJ1qrQUrE/WvZOKx4KuV6VIEvoqX8HQ2E7IzHdPud/+eLlNM1JahA2QxwYiP/m8iStERXHjaXFgHe3GO6RrqSsjXAuPxUTC1dqR+5oMLWBpyMvl/lBKWel578d3nf6QleKjujGWqnLsBBjw6Z8zwjVda1uLnwPlVCkLagu70k6gvTbyvlHJU3WC2oSG0MRDvQX4Gl2c65OR7PX4/d0JnVXiNDCmacJw8k0uXxoI29ZJh8F+VXaMTceOs830yYsn4KjOvYhSZcH0GFiiNNTyyGxeLjXPzeQRwKC30Xi9JwDWQvaaTEvB+mXdy31vFhRQlJuzqDdlll/t3s3Y3Dz+6UfLbJkJBm8xHHLgqOulqzL+zDPJdoyW7mORv+W+Jk7EjquEJjBU0QbnZ4xvYEwGbOwuJZES9tz3S9IQnw+HqCg+SqkyoEpjlXZC/c1G6SbW7tj4OUqxFWxhOS6WnXuBQfX/8Wwd9Nbj8qoyY629nq4uJ/3nag0OPiFxbIsfbiyxE0mSjgkJV9yD5kKbSEOTeWk2XGyel5rIo/A9aj5Em4iKMhLzLknSUrBuWfdOahZ4o6CAz4LBuGujkpEtSbxRUEB7cGJljEuB1lq+FNbzW7qPLdby1+iU84FbdwlVqC3pAY5SbA0xfCuNylpH4jERc3H5Gl10aOMeLX9gXIxzLDvJ8kiTte0EaHeGx6HcHvy1q26mIANZ91/i7Uf/IluSeN1iAeDGxASTc3OR60PT0wxNT0f+npyb48aE6pRet1jIliRuP4q/Enq1kIa8nDrhwnl1BMl27Pln7oUnV9iKFk9pLiuyATLjyZrqz3s/hHuJquRXdvQQ1tBdPo+9J0buAW18KRw2iR2xpAoTkZhWk4T272VnojVXZntwGs+Rhoa8XGqem8mjqnLshOg/F20cqHEKBBvASc0sKNyQZd7ZtYsdOTl0BYNMzc5Grt999Ii7j6JS3tTsLF3BIDtycnhn1y5uyDIzCy9m5yilpIEPYgakFUU2TIpYCpqeb3O8b1gDpLg9tDhsBNoX9yT0lczz3q/GEZ5WXVxDdbHVMGEiGuagYWBccXuotUuRsAntKGngSniMSZtwoM7kC19X3HzQ1UZDie6e8NgJo3dS2r5caBM4rBXvGmypvhidzamnrMgWkbwUpYSGK6l3dlhyGsbk5VLyXHvHVHmkhrOp0l/42umKFVoZLVhzrHu5D8AXmuLQtm38Zt8+vA8epNx14uWcHH6zbx/js7P4QvF3m9DzzV9mlstUA9KQl4EaP36/Ni1XNj9mkoJBbz3OMQ/durECRZHpaz5uiF+SOmlsL6e77n38jug07Oe9HwDfHQK1qsxzLWZ6OKhS5rUJJ35/feS3WNlo0FvPOdpo0dsh3+R8fQeEK82OOwFOVqoTDrSKudEFHn8Pfp0ziB3PS2r7MuFTDaG2tRdH5B2b6LO2UqFPC6WEI8VWQsPptVDMpqGZvDQbLpZUeSR1NnKuKHpdkW9yvj3ABSH3CRAbzBrCiA1mV5d4WxVpLOdWQNqYB+2VKdfzZAJxt3AqaaCtpZBeMV4mWKds6A1mAR4/fUbT1/+kZ3KSmj17+GNxMe6iosh1d1ERfywupmbPHnomJ2n6+p/CQa00peqEif7rqadyPw+a5GSvXL7tolaU8Iy4wJ1oulTXOCBmhwyBYCOwoUr8UwU+lqeoG71Pe3CCb2bnmJOymJOy+GZ2jvbgBHWj9/lYFmdJrQbVNYvXdK0UA5c+VBeQZtjiz9KGNuOCWW2tW6iPjvCaMa1Xqa0REgg2EhtG7hNkDtqWQ8mmz2+knb8XrQ+Ks22RQLDeSST3CSclEAgEghfOhh+TEggEAsHaQzgpgUAgEGQswkkJBAKBIGMRTkogEAgEGYtwUgKBQCDIWISTEggEAkHGIpyUQCAQCDIW4aQEAoFAkLEIJyUQCASCjEU4KYFAIBBkLBviPKlYNmdlcSR/G7nAF5OTALxZUMAc8Pmjx/x7YQ3slC0QCAQbgA3lpDZJUGW18EubjWeKwpdTU+SGj27Yk5fLGxYLp3bv4s+yjC8kdkIXCASCF82G2WBWHHooEAgEmcuG3mB2kwS///Eetmdn03rvHrenphY5KIBnisLtqSla791je7bq1DZJcSJcQao8frquNKyNw/nWAFUeP10e94s2AxB5q2e508JsfBs1D17Uey/HczeE3FdltbA7L4/3791jen4+Zfjp+Xn+98EDmvbvp8pq4WN5Km64/H25WIpzyXlJYua7Bb69PcP846V3TBWlhN1Wc2G1M5kSIfc1cco7tGRbloKZc6Igen7SyNXjGXOce9wj290euusORsOkeK9U8ZvN25UgXnlRFJn+c7WrcujkWiXTvrONdM6axrp3UluzJN622egYG+P7+Xl+um0b/+/MDPteeontmzZx7/Fjvp+bY8+WLfxo61a+nZ3l4ZMnfD8/z6fBINVFRfx58ntmFmKkwc0Sr7yeR+jOv5n9/xawluVR8PPNTHzxw5JtlaQhvKdceAFSFMBBbz0ur/p/xe3BX2vLiApHkWVC1kMcKYXBON+uUtLA8QMhZDm9GltR3Hj8ddBeuSKOrezMu1TQx/mzHSBlUdrQxoUKmXbn8ciR7YrbQ9uZskillI5N6eTtSqEoI1xz/S7yPqUNbVxoaYcMKDeZSqZ9Zx1nm9nd1srpM7dWvRH6olj3JfNw/naeKQpfTam9od++9hrvvvoqFVYr/2m1cuHAAZyFhfz3T37Cofx8fvfaa/yXTW05fRWWBQ/nb18Ub+72LCQJpv8+z8zEM56MP2PT1lXWBjMRq4w8aqWiJv4x7WVHD2EdlUnTR60oiuKmusJKoEdtnWp/h/qvRyp0AKmzcV1VDAOXuglgpfho2Ys2RWASSRriUk8Aa0UNVRtEslz3Pak84MvJScMY1D8eP+azYBAJaNq/n19YLJwfHeXpwgIVNhtvvfIKf5NldQbg5CR5ceKVNH+kQN6ObHK2SmTnSmzZaUzShTmF2e/NT76I7c5rrfWD4QemI5Elkgb0v++92KP+/yM43eLAFn5OvCPMlZIG2vRhEshfA9f7sLU4aSjpMLQ41cof+s/dYWeL3Rh3WG5z2MJx61r9Bsmlrhd/nVFmiU2jeHbp44jtUVBVjj3Ux3kfoGtnWAv3AvGdUjKbtPS9NnyIWp38GUnr+j8xQFlEXjw/4UxsG4tlR7mvjeHiOoM0uZykyudUZTL2/nhh9Jgpp1p6xSsfBkrf40qKcpzu+6Zi1b8z33X6K1spqwJfp06qxoQMaCJ9zOZfuvmc6v1uJQi/7ntSX0xO8sn4uOG3+0+eAKAAYzMzPHzyhKfhtVHjP/zAy7m5kbCfjI9H1lIZiWaMrTyP/FdzyNuRxY/e2mL4ZyuP5+LMoVUGtv5mXC4nLpeTgaL3TA9CdtwJQFh608dZdoBIrwFAsh3jwq/hsqsSl8uJs/kmoQN1hgkHituDv+UQw+fCYZxN9OPgQlscewb/RO/o4hZ62Rkn9tFuLg0utrXsTA18pIs7ZOdkOO5Bbz1OZxsjisLI1eO4XM6og3J76O6uN6SR6yM4UhWNW7LXc5oPw3G3ESAaN0B1uR1CY9H0kDoZGFXvSzTpIplNWpqeLOzG5XJy4pQ3YcUR17aL0V5oaUMb3XUHI89wuZz0FtZFKuvnofpiHXYC9F4aiPyWKp9TlUnF7aG79Rhye2XkurP5JrbaHq40lMS1I245LWnguK6cJisfkbRMUI4TPdfM+5phtb8zSRpiPAT28vhqRSLMpI/Z/FtKPqd6v0SseycVjwVdr0qRJPRFUcHQmE7IzHdPud/+eLlNM1JahA2Qx6KViM+buMJbhO86/aEYZ1FVjp0AA77oT4oywjVdC0wa8nK5PwQHyqlSFtSWWqWdQHtUi5ekIS591BcZf4ql445RkohIanc64po66G00xt0TAGshe5O8nmaXEmgzOoghL159y16+yeVwRSxJnXT0hyJxaxMaQhMPjUnX6OJcn4xkr8fv7057hqCijHDtbPx3NYSLZ1sk3dU0k/uaDK3TjrPN9MnpT9CRpIPUdvfi93fj93dTdqeSEycao2NuZvI5SZlUFDeeWvsie7XylFCiilNOy44ewqorp2bKR6JynOi5SynXcXkB35nqGIsoVRYi453JGkNm0sds/i01n1O9XyLWvdz3ZkEBRbk5i3pTZvnV7t2Mzc3jn360zJaZYPAWwyEHjrpeuirTn1kmSUN8PhyiovgopcqAKplU2gn1NxtlktAED2PuHRiTARu7SwGOUmwFW1jWimVnPFUsLEkcP1OGzztklNQSoM3601CUkeQvWKraFejpIGl7S9dLSoRa6RrDaIPmql31dHU5zQ+ax0nTtG0zOITnb0/qJbIqj5+TtX+gyqeTzEpN5LMvSZlMYq+hPMWUlXjl9EixlVD/h4ZymrJ8pCrHsWXUzPuaGIJ8Yd9Z2EnHESbik/L5JvPPbLg00zsR695JzQJvFBTwWTAYd21UMrIliTcKCmgPTqyMcSnQWkiXwhpuS/extPXygVt3CVWorbABjlJsDTF8a2mVXmK9efFvxg8XjlTaCQ1fV+2OyQZNQrIToN2pVprqTKq0TVwRfI0uOjTdv+UPjMcbC1ljdJy9Spm/jpMXq/HFjEkky+dkZXIgzh1mUcupg+qqPzHw0FhOV7p8pFOuk9u/+t/ZWiTdpSfr462TcPvRv8iWJF63WAC4MTHB5Nxc5PrQ9DRD09ORvyfn5rgxoTql1y0WsiWJ24/ir4ReLaQhL6dOuHBeHUGyHaO6KvU9EQZvMRyWIsqOHsIausvnsU2vOLKaOk4TDjs4hgzYitKbBTZwqZuA1UH1xRoqrMaxDwNV5dgJ0X8uWvmXFSVemxJ9t6XZFY9UcUQkptUk4fvtZedzzo6UpE4a2wNI9no+cC+keF6c++OVyST3q/kpM56g2S8NeekdVcdZ1Bmg3dEeq9nykaocx7KM5eeFfGdme+vL8HxD/i01n5eY3uveSc0sKNyQZd7ZtYsdOTl0BYNMzc5Grt999Ii7j6JS3tTsLF3BIDtycnhn1y5uyPKiNVKrhVLSwAcxg5CKIvNtGiUzMmW1uIbqYqthIDca5qBhsF5xe6i1S5Gw2liJzfF+tEIL23clyViNdt9B+8FF07kXh7WpckY43tMV8WthfQFPaJfbY/g7GdogtDqTL3y/4uaDrjYaSnRxhvV0Ru8seo9lqeTi2qZO4LBWvGuwpfpidGadxpJ21vBdp09WsFe+Fx7bSJ3PycpksvxocdgItCfvgXbcCcABJ6eLF49dmikfqcrx4vBLK9fxWO3vrKzIFpGKFaWEhiupd3ZY8vNj8m+p+bzU9F73ch+ALzTFoW3b+M2+fXgfPEi568TLOTn8Zt8+xmdn8YXi7zah55u/zCyXqQakIS8DNX78fm3a7RJ3CPDdIVCryiXXYqZZgzp4f23Cid9fH/kttks+6K3nHG206PRkVebpSLo4deDWXeSKQ0mlD6mzkXNF0bgV+Sbn2wNc0Mk5asu/nO669/E7otO9B731OMc8dOvtCrRxotF8GnXcCXCyUh2E1j7WRhd4/D34dc5A7mvihH6CRgKblhOfagi1rb04wr+NXG2iz9pKRfjvyOSP4bTa1ZFB6+IWBxcujnGisTNlPqcqk3HzQ5Hpaz6eutxGymkfl3Xl1Ez50OxMVY5jWWq5Tm7/yn5nilKijtmlmd9mn28m/5aaz0nfLwFig1kd63WD2Xhb/mhsxG1WYlnp3SyWm9j8VO138q3YOeKFslrfmbrOqJDedTA2qmdDbzAL8PjpM5q+/ic9k5PU7NnDH4uLcRcVRa67i4r4Y3ExNXv20DM5SdPX/1wXDgoIz6oJ0X899ZTojYgmQ2iyV8ajzWrUJLGqcuyJxl0Eq8cqfWfVNQ5IIZ+vJzbGW4Z5qsDH8hR1o/dpD07wzewcc1IWc1IW38zO0R6coG70Ph/L6+ssqeoah3EgWrCIgUsfqosKL6a3QHKlKW1oMy6iVNx4WhxYQ310hKfzS52NKdfICFae1fjOtB7Z5USTkNYhG2JMKpZ/LyzwV23dU3YOwItZB7XCGHclX4LGvoEwbACbQQx66+n1RMeAQLeVjcjPjGA1vzNfowsfbKi83zBjUgKBQCDIXDb8mJRAIBAI1h7CSQkEAoEgYxFOSiAQCAQZi3BSAoFAIMhYhJMSCAQCQcYinJRAIBAIMhbhpAQCgRjtg5AAACAASURBVECQsQgnJRAIBIKMRTgpgUAgEGQswkkJBAKBIGPZkHv3bc7K4kj+NnKBLyYnAXizoIA54PNHj/n3whrYCVsgEAg2ABvKSW2SoMpq4Zc2G88UhS+npsgNH82wJy+XNywWTu3exZ9lGV9ofe2ELhAIBGuRDbPB7EY+9FAgEAgynQ29wewmCX7/4z1sz86m9d49bk9NLXJQAM8UhdtTU7Teu8f2bNWpbZLiRLiCVHn8dF1pWBuH760Bqjx+ujzuF20GsDbydi3YuJq8qPQQ+RBlQ8h9VVYLu/PyeP/ePabn51OGn56f538fPKBp/36qrBY+lqfihsvfl4ulOJeclyRmvlvg29szzD9eesdUUUrYbTUXVjvDJhFyXxOnvENLtmUpGM/VSXxMdpXHT61dYuTq8Yw5rj3e0d+K20N33cFomBTvlSp+s3m7kqhHzddxUIq2vjIpH+KhHpfuwBa2eSn2Lufx7YLVZd3n1tYsibdtNj4NBvl+fp6fbtvG5uxsfpafz2GLhR25uQDs2bKFwxYLe196CYDv5+f5NBjkbZuNrVmLu1PZmyVeeT2P6dFZvvnrDFmbFAp+vvm5bNUO3jNzyuqgtx6Xy4nL5cR5dQRFkelrPh75bbUdlIYiy4SshzhSmuB6SQPHD4SQ5fScuaK4+aDLzwfulWlZlp15lwr6OH9WPfq7tKENfy20O6Np6uop5PSZsiXZlE7erhSlDW10d9dDe2X0nVxOBsrbaSjJzBa7UtJA26/hsku1+VyfjL02fXs7zjbTj8OQf4K1wbp3Uofzt/NMUfhqSu0N/fa113j31VepsFr5T6uVCwcO4Cws5L9/8hMO5efzu9de479sag/lq7AseDh/+6J4c7dnIUkw/fd5Ziae8WT8GZu2rrI2mIlYZeRRKxU18Y9hLzt6COuojJwBvQoNRXFTXWEl0KO2srW/Q/3X8ekcitTZ+MKc//OiuD1cqIC+5sW9EF9j/Yoeef48SENeTukc+8ClbgJY2bk3zXikIS71BLBW1FAlJLQ1xbqX+/KALycnDWNQ/3j8mM+CQSSgaf9+fmGxcH50lKcLC1TYbLz1yiv8TZbVGYCTk+TFiTeiliiQtyObnK0S2bkSW3Yak3RhTmH2e/OTL2JliVh5Jh2pI5HEof9978Ue9f8fwWmdpBI5olxHrOySSP4auN6HrcVJQ0mHofJTK3/oP3eHnS12Y9xhuc1hC8etjHDN9Tt8UpZR2qzrxV9nlDNj0yieXfo49HGrCVKOPdTHeR+ga2dYC/cC8Z1SMpu09L02fIhanfwZSev6PzFAWURePD/hTGwbi2VHua+N4eI6gzSZDEUp4UylnVB/c9rOKFm+qH8nLp9LKbtqGSukNyYNIlSVYydE/0PNPjcev5Nvz9WmfjffdforWymrAl+nTuLFhAxY+h5X0vw+Er2z2XCxpPr+kuWVXs5OVd4yjcy1bJn4YnKST8bHDb/df/IEAAUYm5nh4ZMnPA2vjRr/4QdeDkuAAJ+Mj0fWUhmJFjBbeR75r+aQtyOLH721xfDPVh7PxZlD+8ht/c1RaaboPdODqR13AhAjvSmKm7IDRHoNAJLtGBd0koqz+SahA3WGCQeK24O/5RDD58JhnE304+BCWxx7Bv9E76iV4qNGaaXsjBP7aDeXBhfbWnamBj7SxR2yczIc96C3HqezjRFFYeTqcYOcqbg9dHfXG9LI9REcqYrGLdnrOc2H4bjbCBCNG6C63A6hsWh6SJ0MjKr3JZp0kcwmLU1PFnbjcjmTSnxxbbsY7YWWNrTRXXcw8gyXy0lvYV2kIjJF6VGKrSCPDZi/J0yyfElWPtMtu6UNbfj93XS3HoOYHqyG5qxD/R9GHJIkddLYLuNo7cXv7+ZKQ0nCd5GkIcZDYC+P38tPeF+C70P/LMXtobv1GLJOSnU238RW27OkcPHePdX3lyyvIu+SorxlIuveScVjQderUiQJ/WejYGhMJ2Tmu6fcb3+83KYZKS3ChrFy8XnTGNPwXac/FOMsqsqxE2DAF/1JUUa4pmuRSUNeLveH4EA5VcpCpCUeaK/VVQ5DXPqoL+H4U8cdo7QSkdTudMQ1ddDbaIy7JwDWQpKpOppdSqDN6CCGvHh1rVJFvsnlSwPhuDvp6A9F4tYmNIQmHhqTrtHFuT4ZyV6P39+d9gxBRRnh2tn472oIF8+2SLqraSb3NRla2R1nm+lLc0wPQnz7MHWoWJLmS7LyabLsVnn8+P3dXKiQI+N/8SRVpaSBtlp73AlBUmdjpNKVK1rV/EowM05tuBVRqiyYHidM9H1o5VtR3HjCtunzaanhFj/f3Pdn5htKVt4ylXUv971ZUEBRbs6i3pRZfrV7N2Nz8/inHy2zZSYYvMVwyIGjrpeuyvRnlknSEJ8Ph6goPkqpMqBKTGHZx9BSDU0QW38NjMmAjd2lAGpL3BaWtWLZGU8VC0srx8+U4fMOGSW1BGiz/jQUZST5C4Z7CIGeDpK2t3S9pESolakxzKC3HpdXs6ueri4n/WZkJYibpmnbZqjoX1x7MmG+JCufKcpuRH6yBmh3huWmJHlUXePAGurj/KWBhOEkqZP/OdEZiftCG/G/mXDFHadDH5+U30fifFpSuNhvqdT895fyGzLxLWQa695JzQJvFBTwWTAYd21UMrIliTcKCmgPTqyMcSnQWnqXwlp0S/extKdBD9y6S6hCbW0NcJRia4jhW0ur9BLr5ot/MzpIOFJpJzR8XbU7Jhs0achOtMJS3B78tWmbuCL4Gl10aJVqyx8Yz3ANfxGDY8g41B71kPmJH6nyJXn5TF52tXvHPX5qu3s5qcjmGwCJ7NWN2TzPcoFMJdn3l+nf0POwfnIwAbcf/YtsSeJ1iwWAGxMTTM7NRa4PTU8zND0d+Xtybo4bE6pTet1iIVuSuP0o/kro1UIa8nLqhAvn1REk2zGqq1LfE2HwFsNhya/s6CGsobt8HtuEjCOrqeM04bCDY8iArSi96bsDl7oJWB1UX6yhwhqg91KCMRFtMPxctPIvK0q8Biz6bkuzKx6p4ojIJ6tJwvfby840ZkdqY2xpz2wzmS/JymeqsutrdOFyOTnfT9JxJV9jYlnOOJ7VnHIc0HQvV+M5vg81vWTG0wkXi5lyvtRvaA2w7p3UzILCDVnmnV272JGTQ1cwyNTsbOT63UePuPsoKuVNzc7SFQyyIyeHd3bt4oYsM7PwYnaOUkoa+CDmg1UUOa2xhcjU2+IaqouthgkT0TAHDYOnittDrV2KhNW0a5vjfcOaIKWkgStJxmq0+w7aDy6azr04rC0yrVgpaeB0RfxaWP+hJrTL7TG9nkobTFdn8oXvV9x80NVmWIujjQswemfReyyHk4xvm+Zc3jXYUn3RuBgXUu+s0XG2WR1I97cveq+GK20J1x0ly5dk5TPdsqut+3M234Q4zrS0oY2uLs+i37UZo9oawVRLBMqKbBHJS3331Ds7LPn7cHtocdgItKuOw2y4xc839/2Z/YbWGute7gPwhaY4tG0bv9m3D++DByl3nXg5J4ff7NvH+OwsvlD83Sb0fPOXmeUy1YA05GWgxo/fr00pXaIk4rtDoFaVAq7FTLMGdTD12oQTv78+8lustDDoreccbbTodHFVUulIOpYwcOsucsWhpBKj1NnIuaJo3Ip8k/PtAS7opAp1Flc53XXv43dEp3sPeutxjnno1tsVaONEo/k06rgT4GSlOpiuVTqNLvD4e/DrnIHc18QJ/QSNBDYtJz7VEGpbe3GEfxu52kSftZWK8N+RyR/DiVsvmrz2eUMbLbq4kpWpVPmSrHxKLK3sqj0vkpYp43up41Bm2tuKUsKRYmvSdIp7n8nvY1E5DC+w17+z2XCxpPr+zHxDaxWxwayO9brBbLwtfzTEdjHRsRfaKzN6eyCN2PxMa63QBiblGizBC2VDbzAL8PjpM5q+/ic9k5PU7NnDH4uLcRcVRa67i4r4Y3ExNXv20DM5SdPX/1wXDgoIzw4K0X899ZTojYgmp9grza9Be6Fosxq16fxV5djjjTUKDFTXOBKuwRJkLhsqt54q8LE8Rd3ofdqDE3wzO8eclMWclMU3s3O0ByeoG73Px/L6OkuqusaBdbRbtLKTMHDpQ3VxZIYtbCxtaDMuBlXceFrU6dgd4en8UmfjC90TcC2gKQaXE03eEWQsG0bu24iY2ZVcyH2Zz6K1L3G25BEI1jqJ5D7hpAQCgUDwwtnwY1ICgUAgWHsIJyUQCASCjEU4KYFAIBBkLMJJCQQCgSBjEU5KIBAIBBmLcFICgUAgyFiEkxIIBAJBxiKclEAgEAgyFuGkBAKBQJCxCCclEAgEgoxlQ5wnFcvmrCyO5G8jF/hichKANwsKmAM+f/SYfy+sgZ2wBQKBYAOwoZzUJgmqrBZ+abPxTFH4cmqK3PDRDHvycnnDYuHU7l38WZbxhdbXTugCgUCwFtkwG8xu5EMPBQKBINPZ0BvMbpLg9z/ew/bsbFrv3eP21NQiBwXwTFG4PTVF6717bM9WndomKU6EgjVJlcdP15WGtXGwoY61ardAsBxsCLmvymphd14e79+7x/T8fMrw0/Pz/O+DBzTt30+V1cLH8lTccPn7crEU55LzksTMdwt8e3uG+ceZ3THVzphKhNzXxCnv0CpapBLviHvF7aG77mA0TJJzsczEv9u6bOYaeN4zubTj6w9K0RbRyNXjGX2UvXoUuwNb2OZMt1ewdln3pWprlsTbNhufBoN8Pz/PT7dtY3N2Nj/Lz+ewxcKO3FwA9mzZwmGLhb0vvQTA9/PzfBoM8rbNxtasxd2p7M0Sr7yex/ToLN/8dYasTQoFP9+8qu+WCkVx80GXnw/c0Rb4oLcel8uJy+XEeXUERZHpaz4e+e1FOCiAsjPvUkEf58+qR6KXNrThr4V2Z9Q2V08hp8+URe6J936JkKQhvKdcK3KCbcfZZvpxGGwzS2lDG93d9dBeGX1Pl5OB8nYaSjKz56SUNND2a7jsUm0+1ydjr81cewVrm3Xfkzqcv51nisJXU2pv6LevvcaDJ0+Ye/aM/2fTJmr27OH/fvcdr+/YQfCHH/g///EfdIyN8TdZ5qupKX61ezeH87dzc/qRId7c7VlIEkz/fR4UeDL+jK227BfximseRXFTXWEl0K72RLS/Q/0f4tM5FKmzkVMv0M5ESNIQl3oC+GtrqLo0YLA5GYrbw4UK6Gs+jnfIeI+vsZ5MbUNKQ15OnQLC7zlwqZtARR079wIvpo0jWMeseyeVB3w5OWkYg/rH48d8FgwiAU379/MLi4Xzo6M8XVigwmbjrVde4W+yrM4AnJwkL068EWVGgbwd2eRslcjOldiy05ikC3MKs9+nN/kiVuaS+9oYLq4zSGGwWHLRy2EGWa+uF3+deSkvkXyl/33vxR71/x/Bab0NcY42T2anGnE59lAf532ArtNqLUxc6yV7P83Oa8OHqHXYIs+L2Fz/JwYoi8iL5yeckbgUZYRrrt8ZHI2p/PBdp7+ylbIq8HXq5Eviy4CKUsKZSjuh/uZFDioVWtwOmxTX5lj5UC/FJbuW8HklDbS1FNIbky4RqsqxE6L/oWafG4/fybfnatN+N4EglnVfgr6YnOST8XHDb/efPAFAAcZmZnj45AlPw2ujxn/4gZfDEiDAJ+PjkbVURqK1qa08j/xXc8jbkcWP3tpi+Gcrj+fiElPa0EZ33UFGrkZlrt7CukiFpKG4PfhbDjF8TpVcnM4m+nFwoe09SpUFBr31OJ1tjChKJC6zUl7HnQBYD3GkVPc8xU3ZAQj0RCtcyXaMCzrZx9l8k9CBOro8btN2AlSX2yE0Fo1X6mRgFCR7vSEuPaneT7Id42RhNy6XM6nEJ9nrOc2HYdvaCGDn5MXqtPNDkoYYD4G9vDr2EfEpPUqxFeSxAXPhdZSdqYGPdOkZsnMynJ6aE7L1N0elw6LU1+Ka2NCG399Nd+sx6L8e10FpDjzU/2HEIUlSJ43tMo7WXvz+bq40lKT9jgKBxrp3UvFY0PWqFElC/4kqGBrzCZn57in32x8vq12azCX3NRlatx1nm+mTdTaHW+GB9lpdxTDEpY/6CMU4lyXhu05/yErxUd0YS1U5dgIM+PT2jnBN10uQhrxc7g/BgXKqlAVTdmoTGkITD40mNLo41ycj2evx+7sTOqtEKMoI18LjW0nDyTe5fGkgbFsnHQb7zeVH5Pc7AbAWUaosmBwDC/HtwwSXkjDobTSmZ08ArIXsBSgtwobR+fm8YRuSXdNR5fHj93dzoUKOjAnGa+AoJQ201drj9tClzsaI45crWtU8FDMUBUtg3ct9bxYUUJSbs6g3ZZZf7d7N2Nw8/pgxqRXBUIkkaT+EW+G2sMwVy/OODUjSEJ8Ph6goPkqpMqBKY2FpytCaDk0QW8cOjMmAjd2lACbsHFT/H++dB731uLxqpVlrr6ery0m/WQkpjm3xw40ldiJm80NP2FkMmgu9ZNQ0iTanFGVE/c/gLYZDDhx1vXRVxsiqya6hkyitAdqdYWkvyfhadY0Da6iP85cGEoaTpE7+50RnJO4LbSx5FqRgY7LundQs8EZBAZ8Fg3HXRiUjW5J4o6CA9uDEyhj3nCQeT3j+CmDg1l1CFWpvZ4CjFFtDDN9Ko7JeRjt9jS46tAq05Q+MJxobWUsMjiHjUHurQ+ZbFJpkZyfqSBS3B3+tel3rwV0KjwO2dB/TjQEmu5YVuXfc46e2u5eTimy+UZDIXt145PMsIRBsXNZ9abn96F9kSxKvWywA3JiYYHJuLnJ9aHqaoenpyN+Tc3PcmFCd0usWC9mSxO1H8VdCLzuDY8iArSh2KvNedlrNhFtOW24xHJb8yo4ewhq6y+ex3QNNYtKhji+Fw6ZhZ6owEVlrNTGbH3pM9uC0cTdrRQ1V6Uhg2iSFc1FHXVa0eN2bNOTl1AkXzqsjSLZjVFeZuwZqo8DlcnK+n6TjSr7GxHKmcTyrOeXYoECQiHVfYmYWFG7IMu/s2sWOnBy6gkGmZmcj1+8+evT/t3e2sW1dZ4J+rmTJH03ixhKZ2JYzQB0njenKlQTNIpM0XqzoydqkO0ArCfoxa0n+s4siTelgahUY2YalAGu6aM1JgkV/mZYxQAxJLToRJW1qqbNJky2wHkkTr6jEdZ0Nan04pBTFtStHkq27Py4vPy/Jq29KfB/AgMVz7rnvOYc87znv+55z+OhOxJQ3MT1Nx+go2/Ly+N6OHbwTCDA1tzIbdCMD16sxe06qz8Vu9NR9J1b76zF7hNQSFxcMfDcLUWa6UrAU11BdbIkJmIjk2RcTZKBWuqm1KeG8ZuTUAw60SL5QulrJ2Q5vTBvo/i2GriasopZLWZvtD52yImvYfKiqJbgupD4povXESS3owdeSUFfXBW/SfUeKYtVMpWht+UpFRGOqJS7OxikUVQ1w+2bqNCP0PXWOk1fAQJmWurx0dLgTPtd8eYT3363W3jthfbDuzX0AbcEJ9j/6KD/aswfPjRtpT514PC+PH+3Zw8j0NG1B49Mmorn17tRSiUpbgxPcPmqbu7GHPhu82EiPpZmKqHz9nnpO4aUpyt+jmVNaw/4BLcqqnM661/HZF3CaRNtV/LWaaelSXHi4/r5LYw58vvrwZ/GmPTNytl71c/SwFnCgKzetGbrwRSmDQE8jR6Ij+BZbPzNNYLI/VLWEl4otBK+Zj4TQzWvvu7w0RZWvpjCzKe0NnCqKtKcauMLpFj9ndHPfgIe+Gh8+n5JQlkLytJRyDng4doSU/qnYeml+qCyYAwsrgBwwG0WmHjBrdGTQar93sUcBxb5H87PQcnhNHK1jeIRTur1EgiCkJKsPmAW4++AhjZ9+Rtf4ODW7dvGz4mIqi4rC6ZVFRfysuJiaXbvoGh+n8dPPMkJBAeFoPv/V9CHVS//eIL2Xl/e9ulnQdjj5np2MwqA/qmvsSfcSCYKwcLLqF/VAhbcDE9QNXadldIxb0zPMKDnMKDncmp6hZXSMuqHrvB1YvbukSl3eGCe1qlbibtJCfVvbUjy4DFTX2LEMda7IqQF959/QNvmeM7kZdoUw0x/6qlLfbyUIwtKRNea+tUTCHhiDo4aWE/3IoVQhw0tp7st0Vrs/BCEbSGbuEyUlCIIgrDpZ75MSBEEQ1h6ipARBEISMRZSUIAiCkLGIkhIEQRAyFlFSgiAIQsYiSkoQBEHIWERJCYIgCBmLKClBEAQhYxElJQiCIGQsoqQEQRCEjCUr7pOKZ1NODi9tfZR84Hfj4wB8p7CQGeD9O3f5am4NnMQtCIKQBWSVktqgQJWlgL+zWnmoqnwwMUF+6GqIXRvzebGggGM7d/AvgQBtwdU7CV0QBEHQyJoDZtfypYeCIAjrnaw+YHaDAv/4V7t4LDeX5o8/5sOJiQQFBfBQVflwYoLmjz/msVxNqW1QDAoU1iRVbh8dF1yrcrHiar17Neu8XKzHOgnJyQpzX5WlgJ0bN/L6xx8zOTubNv/k7Cz/dOMGjc89R5WlgLcDE4b5tu7Jp6A4n7xHFKY+n+P2h1PM3s3shal+V1QyAj2NHPMMrKBEGoZXsle66azbF8mT4n4rM+XvtCyZuEIKFnvXmKpW4vbVsU+JzBAHLx7iJ+2ZO6dWS1x4m+xYQzJnurxriXXfiltyFL5rtfKr0VG+mJ3l2UcfZVNuLt/aupUXCgrYlp8PwK7Nm3mhoIDdjzwCwBezs/xqdJTvWq1syUlcTuVuUnji+Y1MDk1z6zdT5GxQKfz2phWtWzpUtZKzHT7OVkZmnP2eepxOB06nA8fFQVQ1QM/JQ+HPVkNBAZQdf5UKejh9QruSvdTlxVcLLY6IbM6u7bxyvCz8jFH9kqEoA3iOOTlyzLPuL2lcbVpPnKQXe0xfmaXU5aWzsx5aDkf63emgr7wFV0lmrpzUEhfeH8JbTk3mUz0BbLWZK+9aY92vpF7Y+hgPVZXfT2iroX945hlu3LvHzMOHfG3DBmp27eJ/fv45z2/bxuj9+/yXr3+d1uFhfhsI8PuJCb6/cycvbH2MK5N3YsrNfywHRYHJT2ZBhXsjD9lizV2NKq55VLWS6goL/hZt5q3/Hex9g7YohaK0N3BsFeUUzKEoA5zv8uOrraHqfF9MH6ZCrXRzpgJ6Th7CMxD7TFtDPZk6p1YGPBw7BoTq2Xe+E39FHU/uBlZnzreuWPdKaiPwwfh4jA/qD3fv8uvRURSg8bnn+JuCAk4PDfFgbo4Kq5WXn3iC3wYCWgTg+DgbDcoNWyJU2Lgtl7wtCrn5CpufjG3SuRmV6S/mF3wRb+YK9Hi5VlwXYwqDRBNDtDksxqxX142vzrwpL5m5Jvrz3ee6tP+/Ca9Ey2BwtXoqObWCy7EFezjdBkQtWi3bk//KU9VPl/PStf3U2q3h94Vlrv85fZSFzYunxxzhslR1kEvOH8cMrGb7wxSlr3Fhnu0FxuYjs/niSdcfuunVbg2lR7VJtFk2Zbu1Xab3cDNlVdDWHmXOxdgMqKolHD9sI9h7MkFBpSOVvNrfsebD6DZKlZa6/bbTHfc9CVNVjo0gvTd1+Spx+xzcPlU777oJmTo1WUJ+Nz7OL0dGYj67fu8eACowPDXFzXv3eBDaGzVy/z6Ph0yAAL8cGQnvpYolMjBYyzey9ek8Nm7L4amXN8f8s5YbqbjklLq8dNbtY/BixMzVvb0u/APUUSvd+Jr2c+2UZmJwOBrpxc4Z72uUqnP0e+pxOLwMqmq4LLOmvNarfrDs56XSqPeplZTtBX9XZIBRrAc5E2XmcJy8QnBvHR3uStNyAlSX2yA4HClXaadvCBRbfUxZ0aSrn2I9yNHtnTidjpQmPsVWzyu8EZLNix8bR89Vz7s/zJCsvS64SmLaq7P5IIEoc5fj5BWstV0LyhePmf4oO14Db0alB20cjUo3026KMsBIEGzl1QkyGFJ6gGILBIb7zDZnmFTy6krI2nsyYjosSp9mKKLLi8/XSWfzQei9bKig9AlNsPeNsEJSlHYaWgLYm7vx+TpT9o+QyLpXUkbMRa2qVEUh+iupEjOZT8rU5w+43nJ3SeXSzVyBnsaY2VzriZP0BKJkDs06/S21UT+EAc6/2UMwTrksiLbL9AYtFB+I8ilUlWPDT19btLyDXIqaFSsDHt7qDcLecqrUOVNy6gENwbGbsSI0ODnVE0Cx1ePzdSZVVslQ1UEuhfxbKfMFrvDW+b6QbO20xshvrj/mJZNBe1kqasLvc9faEt630HyJ7zf3ven3NMSmd/nBsp3dJtst3E5X/WApolSdM+kTDHL7ZpKkFKSUt7QIK7HKr80TkiFVWhRVbh8+XydnKgJhH6nRhE8tceEN9Ut8utLeEFbogYpm7TstEYqmWPfmvu8UFlKUn5ewmjLL93fuZHhmFl+cT2pZiPnRpJg/hGad1pCZK57F2sIVZYD3rwWpKD5AqdqnmcZCppiY2WNwjPgxpW84AFjZWQpgQs5+7f9Gde731OP0aINEra2ejg4HvWZNJgayGecbTj5omu0Ps6Rtr+TvW1C++O/APL43WptHpmuqOhhXlxTtFk1IWfSnz7koksrb/x7Xgnbsdd10HI4zM6dKI8pEafHT4giZ9lLUubrGjiXYw+nzfUnzKUo7PznSHi77jJcFR0FmC+teSU0DLxYW8uvRUcO9UanIVRReLCykZXRseYRbJMnt54v/wve99xHBCm123ccBii1Brr23sMF6sXK2NThp1QeMpp8ykswXIJgiVX/oJjAbkYFZrXTjq11mofqHCWDXVu8D5mdY6eTVV3DnQ364ps6DUT64VGk54WdH3D5qO7s5qgbMT5KSyRvlD1zMlopsYt23zod3/kyuovB8QQEA74yNMT4zE04fmJxkYHIy/Pf4zAzvjGlK6fmCAnIVhQ/vGO+EXnL6hwkA1qL40N3dPGkxk28pZXmPayGTX9mB/ViCH/F+/HQ4o2BwdwAAGlFJREFUzgQEun8plHcecqbLEzbjrCRm+8Msi2ivsiIrEGBkPvniMdMfutP/VGQioJW5QEyuaHU/ZDJTZVJMyqsMeDh2xInj4iCK9SDVVebSQJskOZ0OTveS0q/U1pDcnBnrzzqZ1lcqRFj3LTQ1p/JOIMD3duxgW14eHaOjTExPh9M/unOHj+5ETHkT09N0jI6yLS+P7+3YwTuBAFNzK7NBN/JDfTVmj0X1udiNjboPwGp/PWaPkFri4oKB72YhykxXCpbiGqqLLTEBE5E8+2Kc5Wqlm1qbEs5rRk7dwa5F8oXS1UrOdnhj2kD3pzB0NWEVtVzK2mx/QOgUhDR+swW3V6WbJrsVf4s2EJvNZ1QfM98bRbFqpr9Q2isVC9sFXVZkDZsFVbUE14XUJ0W0njipBT34WhL63nXBm3TfUSp51RIXZ+MUiqoGuH0zdZoR+h5Dx8krYKBMS11eOjrcCZ9rvk3C+xFXay/iWmXdm/sA2oIT7H/0UX60Zw+eGzfSnjrxeF4eP9qzh5HpadqCxqdNRHPr3amlEpW2Bie4fdQ2d2MPfTZ4sZEeSzMVUfn6PfWcwktTlH9BMx+0hu3hWlRROZ11r+OzL+A0ibar+Gs1U8qluPBw/X2Xxhz4fPXhz+JNSWbkbL3q5+hhzcGuD9ZaM3Thi1IGgZ5GjkRH8C22fmaawER/hIM/rqVeM5htL8ewm87o9gptuI42M5nNF0+6/lDaGzhVFElXA1c43eLnzDzNfapawkvFlrRtEo1uXnvf5aUpqr3VFGa2dPIqAx76anz4fEpCWQrJ01LKOeDh2BFS+qdi66X5obJgTbAsyAGzUWTqAbNGRwat9nsXe/RN7Hs0vwIth9fEUTLx7SL7YBJJu5dIEOLI6gNmAe4+eEjjp5/RNT5Oza5d/Ky4mMqionB6ZVERPysupmbXLrrGx2n89LOMUFBAOCrLfzV9SPXSvzdI7+Xlfa9uhrIdTr5HJaOI74+qcmxGPrssprrGnnQvkSDMh6z6Bj1Q4e3ABHVD12kZHePW9AwzSg4zSg63pmdoGR2jbug6bwdW7y6pUpc3dtOmWom7SQttbW1L8eAyUF1jxzLUuSKrg77zb2ibSs+Z3Py5QpjpD6W9QZzgUeirbH0flSAshqwx960lEvZ8GByds5zoRw6lCpFdSnNfprPa/SEI2UAyc58oKUEQBGHVyXqflCAIgrD2ECUlCIIgZCyipARBEISMRZSUIAiCkLGIkhIEQRAyFlFSgiAIQsYiSkoQBEHIWERJCYIgCBmLKClBEAQhYxElJQiCIGQsWXGfVDybcnJ4aeuj5AO/Gx8H4DuFhcwA79+5y1dza+AkbkEQhCwgq5TUBgWqLAX8ndXKQ1Xlg4kJ8kNXQ+zamM+LBQUc27mDfwkEaAuu3knogiAIgkbWHDC7li89FARBWO9k9QGzGxT4x7/axWO5uTR//DEfTkwkKCiAh6rKhxMTNH/8MY/lakptg2JQYBZR5fbRccEVvoww/u9sIBvqnA11FNYmWWHuq7IUsHPjRl7/+GMmZ2fT5p+cneWfbtyg8bnnqLIU8HZgwjDf1j35FBTnk/eIwtTnc9z+cIrZu2trYarfHRXoaeSYZyBlXlUtYadlhQQzidEV92qlm866fZE8Ke7FMlP+ctV5MXdyrZU6Qqysqt/L6TEHTXYrgKnvnZDdrPuV1JYche9arfxqdJQvZmd59tFH2ZSby7e2buWFggK25ecDsGvzZl4oKGD3I48A8MXsLL8aHeW7VitbchKXU7mbFJ54fiOTQ9Pc+s0UORtUCr+9aUXrlg5VreRsh4+zlcazY1Ut4aViC4P+QSzFB9LOohVlAM8xZ0bdQlt2/FUq6OH0Ce0q91KXF18ttDgO4XQ6tH9d23nleFn4mXTtEs1y1rn1xEl6scfIZoa1VMewPIErnHIc4khDO/2eehyORnoCa2tCJ6wOmTHSLCMvbH2Mh6rK7ye01dA/PPMMrz79NBUWC//RYuHM3r04tm/nv37jG+zfupUfP/MM/8mqzfJ+HzILvrD1sYRy8x/LQVFg8pNZpsYecm/kIRu2rDHbYFUNFRY/fZfHCFrsVFettkDzQ1Urqa6w4O/SVhD638Hey7RFDbZKe0NGztYVZYDzXX4sFTVUmTSzrbU6CsJiWffmvo3AB+PjMT6oP9y9y69HR1GAxuee428KCjg9NMSDuTkqrFZefuIJfhsIaBGA4+NsNChX0fWRChu35ZK3RSE3X2Hzk7FNOjejMv3F/IIv4k05gR4v14rrYkxaAGqJC2+THWtImGiTj27GA6CuG19dommlutwGQxdp7b/JzqCdivJqaE99LXq8iUo3t9mtIRnUQS45fxweQFW1Erevjn0hGQcvHuIn7ZHBNVUd0j5fVY4t2MPpNiBqfmDZvhswHrBTtYtet0vX9lNrt4Zl2X2uK1znPsrC5sVos1V8vU33Y9tleg83U1YFbe1R5ktSmwHXVB0FYRGs+5XU78bH+eXISMxn1+/dA0AFhqemuHnvHg9Ce6NG7t/n8ZAJEOCXIyPhvVSxREZFa/lGtj6dx8ZtOTz18uaYf9ZyIxWXnFKXl866fQxejJhyurfXhZWAjlrpxte0n2unDuN0OnA4GunFzhnva5SqcyGTipdBVQ2XFa2g1BIXh/aC/2orijLA+9eCsNeBq2R+jvOy4zXwZpQMQRtHQzLoCsbaezJcl76i18JmxXR1SPd8dbkNgsPhgVxR2ukbAsVWT4e70lDedO2iWA9ydHsnTqcjpflLsdXzCm+E5Pbix8bRc9Xz7kdFGWAkCLby6vhXGL93DdZREBbDuldSRsxFrapURSF6WFaJmZQnZerzB1xvubukcummnEBPY8xqo/XEyRj7vaqWcPywDX9LLZ4BfYAe4PybPQQt+3mpNP27yg7sx4Kfvjbt7773PiKIheID8/OP9HsaYmXo8oNlO7sBSouwAoHhvnD+No8nsgJLV4c0z++0QHDsZow8bQ1OTvUEUGz1+HydSQfyZKjqIJdC/q2U+QJXeOt8X0judlp7g7C3nKqQcjXTj+HPr/rBUkSpOmfKP7QW6ygIC2XdK6nvFBby/Z07F/z893fu5DuFhUsoUQoMBmXjfAcotsC+um58vs7wv87mg1gVK0/uTv24PsAwdDViuul/j2tB5uUf0aly+yIyRJl+9DL31XUnhjebqUOq50MYtVW/px6n00GLX9VWHB1e8yvE4Bg30+eKWcElYLYfo9EVu0nWZB0FYQGse5/UNPBiYSG/Hh013BuVilxF4cXCQlpGx5ZHuEUS79+JkGbuUVWu+Xhs9fh89XGJ+8L+kXTo5jgbflocmq9CrXTjq9XS9VXB+ZDfqanzYNgHog9tqepg5vlUtDU4adV9PE0/ZSTOn7IeyIY6CtnNuv82f3jnz+QqCs8XFADwztgY4zMz4fSByUkGJifDf4/PzPDOmKaUni8oIFdR+PCO8U7oJad/mABgLYo3ue3mSYuZfOnRzWx6SHA4hDnkE+oJqNgOv2ZuU2dVOTaC9J6KDIxlRdaEbMqAh2NHnDguDqJYD2pRhPOog+HzIdI9HzZBriRm+zEas6sbA9ZMHQVhAax7JTU1p/JOIMD3duxgW14eHaOjTExPh9M/unOHj+7cCf89MT1Nx+go2/Ly+N6OHbwTCDA1tzI2dt0pbql4NcZ0U30uEt2m52vtDWK1vx6zD0YtcXHBwD8RM5CEzGx62Hbs+3Wfkjm/lvZMxLyolrh4pSIyQqklLs66SmLyq2qA2zfN1SH181rAgRblpqdVcjbO7KUr5RjTplG7LCFm+1GnrMgaNq2pagmuC8lPf1irdRSEhbLuzX0AbcEJ9j/6KD/aswfPjRtpT514PC+PH+3Zw8j0NG1B49Mmorn17tRSiUpbgxPcPmqbu7GHPhu82EiPpZmKqHz9nnpO4aUpFGIMevh2K0RFuzW0lNNZ9zo+uxaG3L3djgU/3XFh2xEBruKvraOiphrPQGqbn9LewKmiiAxq4AqnW/yc0c19Ax76anz4fHp4eoDeU5FAiXR1SPd861U/Rw9rAQf9So5WXye4fV34ogbKQE8jR6Kj2wzaZan3GJntR31DdfCauXXUWqyjICwGOWA2ikw9YNbo6B8h4hOj5XASv1ZmYXiEU4kLb9N2uteJLynZMVW+w2Nx+9+0fMXXTsomZAHI8gNmAe4+eEjjp5/RNT5Oza5d/Ky4mMqionB6ZVERPysupmbXLrrGx2n89LOMUFBAxER3NX3YcDahmwxN+9BWG4N+rK6xQ9zpEWsa+a4KS8w6+WWY44EKbwcmqBu6TsvoGLemZ5hRcphRcrg1PUPL6Bh1Q9d5O7B6d0mVurxciPLDqGol7iY7lmAPrW2rI1Mm03f+DW0D8Dlzm2FXCjP9qJ/+oO9FWmvM57uqWA/S1NlNh7tS2wTc+bps+hVMkTXmvrVEldtHrS3yA1b9XjHzrUGyoR+zoY7CypDM3CdKShAEQVh1st4nJQiCIKw9REkJgiAIGYsoKUEQBCFjESUlCIIgZCyipARBEISMRZSUIAiCkLGIkhIEQRAyFlFSgiAIQsYiSkoQBEHIWERJCYIgCBlLVtwnFc+mDTkUP/k1ni3czLZNWhN88dUDro/f59rtv/DVgzVworYgCEIWkFVKKkeBl5/exuFnHkdR4Ob4X5ic+gqAwi35/IdvW1FV6PrDJO/+8QtW6EJeQRAEIQlZo6Q25+Xwg7/ewVNb87nyyecM3PrS8NLDkl1f5z8/a2WvdQv/4/+Mcn9WVlWCIAirRVb4pHIU+MFf72Dbphx+8cGn/NufJhMUFMBDVeXf/jTJLz74lG2bNKWWI1feCEJGUeX20XHBtTYuuhQWTVaspF5+ehtPbc3nFx98yp37szFp39rxGIf3budrG3Np+/cR/u/IHe7cn+Wfr/6J//biN3j56W103/jCsNyte/IpKM4n7xGFqc/nuP3hFLN3F2cjLHV5abJbEz4fvHgo4Yp0PW+gpzHlFdz6Nev7lIjG1ctL9j6d+LLVSjeddftS5klWD1UN0HuqFs+AVo8qt4+je/1cirs6PXwFOT0xV44bEX+fkZE8S9mmerrRvUlGV6enwrCNAldi6mymHc3UMV26fgHj6fqf01f1Uzrr9hnXscSFt8mOZchcHSHxOxNfx/mgqiXstMz7sVVBb6tAbw/WCjuBlsMJ37fo769Rv863vPXIuldSm/NyOPzM41z55PMEBQVgf/YJro1+ye8/m2Rq+kH48zv3Z+m9HuDwN5/gf332ZYLZL3eTwhPPbyR49Sumv5zDUraRwm9vYux39xcts6oOJgzc8YteVS3hpWILg/5BbMUHKFX7DH/0+uA0ePEQzqgvdJW7BdfNWjyeepyeUJmVbny1VsMfSngAtgTpOXkonK4pwGY6ihMVSnw9Sl1ezjS1QKj81ss9HGqyc+h4GW3RCqGqhgpLkN5T5gay6EFP+yE3c4GTscrVcGBcWJsCKLZ6zla2LnqQiJE91MZnvMTImq4dzdbRzPcKQGlv4FSRlzMVDlwlrVF9XcLxH85PQZW6vJypCNDiOBR+r1rpxnu8LNw/+iQKE4OuogzgOebEA7AAJbfyBLn93jBUJKaUurwc3eunxaH1idavP2UkoY/MlbdeWQu9vCj2PfE1FGDg1peG6Zvycrj15X2+nJph5mGsIhq49SVKqIx48h/LQVFg8pNZpsYecm/kIRu2rKBtsKqGCoufvstjBC12qqsSs6iVbs5UQM/JxBVDW0N90hmbEWXHX6XC4ueSM3ZgVJR2GpwX8VvSX+Hed74TPxaKD5Rpzw546B4CS0UNVSHTjaqWcPywDYY65yVfWB69zO275/2smTYFUAODDAZUbLU/Dcu9FCjKAOff7En5bkhsx+Wg7/wb9AYtVPzwtbBZLfwdONFqqgxVraS6wkKw93LMoKu0N6Rc+a9Pgty+GfvJ7u0WGLoabpu+4QBgZWfpwspbr6x7JfXNgs3cHL+X4IP61s6tNDn2sjkvl+qSIpoce9ljeSQmz0NV5eb4Pb5ZsDmh3LDlTIWN23LJ26KQm6+w+ckNMf82bstdlnpVl9tg6Cqt/e9xLQi28lgFoQ/2wd43FjTYx5ZlPNjoKEo7rb1B2Fs+70G79XIPQWyU6YNy6QGKLUF6L5sbCBNlXbg5KF2bRhij9U1N7qNpFPO86R8msLQlLoh4hamWuHilwoK/JTLLV9USXBfS+4dSTRhKXV46O+vZpyjsq+vG5+vkgqsEiPieqlxefL7O8HuifVJhGdyVlIby+XyddHS4E76LaqU7nK69pzL87LLQP0yAACP9xsk3xyK/mfDkLPgR74fyV7njZEtT3npl3Zv7Ht+cy5f3pxM+v377Lj//1z/ygxe/Qe8fAlwP3OMvXyWaA7/8apbHN280KDmyarKWb2TLk5oyeurlWIU2dfsht96dWlwl4lBLXBzaC/6WVhQlh/evBamIM81ogz0EhvtY9FyktAgrQa69l7ysvvc+IlixX5sFJpkkV5+rw4afS+f7wqYabeVj5+jh1yht+zm7azRz0oIVa2g1dKm+dV7mIFNtGk3/z3mrdz9N9qUx+4XR2zrFLNmoHZcDZcDDW737OVPbgjdowTJ0kWPzqKeitNM3VMc+Wz0dbgxNhP2eehznk5v7FOtBjm734nSGnlVyMFJ5iq2eV8YacToHwubDo+eqaQu9M9rsrb+jyu2j1qqgBpPXQfcDWZVEK0k6H5KitPOTI+2gQNuRduJ/O/2eei5t91Hb2U0tRHyA0X1qKaJUnaNfyUlb3npl3SupZMw8nGNmagYVlb/MPODLqZl5PT/1+QOut9xdFtkUZV/4iwuJvoSyA/ux4Ke7DVB0BWHXzD8D0RpiiUwCu7djbnFi4cndhJVUfD0GLx7iSENOwsCq+6aqj4N1b5DeU63M5weoWA/S1Hkw/HegpzFhxRefZ+FtGqHv/Bv0FDdTUftTqtp+zMLWfhFUtRJ3U6KSNtuO6eqY7nuVrI69xc2Git+Mf6itwclNl5cmez0+X71hMEbqNhnUzItplLEauMJbIaWtrewdnKkop0ptpZVqqissBHoaY5Rg64mT7PQ2p3TvKAMejh3xpMixMEWh+x/tVoXBnitYK+xYo/ycukUgeO29BQWYrCfWvZKavP+Qwk15C37+65vyGL//cAklSo/h4BE2sWimN4Y6I+n973EtaKeiooaq830pB50FcXOMIMkjACPEKsXoelS5fRwNDeYJCiS0mqq1H0T1e+e9ijIKPui4EBvIYRhUsMg21U1ixU12jp6rpvXE/GcERgr2SJy/xmw7pqpjfDlG6UZUn2umAj/+oC1mZTIf+kPBOVokWz0dHY6UK5AYgmOYatXgcPLBvLQIK0tkVVgitHbt4ZQj1F8eTygKspuzHKLhpmb2TmW9yBbWfe0/mbjP7sJHyDVYrqcjV1HYXfgIn0wsPmJvyagqZ5+ioNjqw7b1zs7XsVsVFGVfxLfTP0xgqZzrJsrSViLJ7eWtJy7iT+HDab3cQ0ANLNgXpaMoA5zv8oNlPy+ZckBjvk2N3jfg4a3eIIqtHneKfMlQA1c45TiE0+nA6XSkDShI145LiVrpptam4O/6MQ1v9hDcW8fZyoUHirQ1OHE4GrWAjKalDTpZLtQSFxc6fDG+rIjfy4urZP51UNVKyvaCvyt2QqG0N3CqJ8C+um46mw9iWWDw0Hpj3bfA4Od/QQVKdn193s+W7Po6aqiMTEB3rsYPbE6nA4ejkZ6Aiu2wFo2l+QNiI+cWSrqy0gVW6GU0tPhDoduZMzjNp02T0Xf+DS1f7asUL7O8K9WOqlqJu9aG6vfyk/acsDK21bYsaGDWCU8iVpJQMIq1KH6StZsn09ixNXOfM+Z7of87cmR+EbLxJMqjrTpb/GrEzCmsfyV1f3aOrj9MUvGsla2bzZv9tm7Oo+JZK11/mMyco5FCwRDxMzAwXkG0njhJb9DGUV/swKJFRM1vFhgpK3YGrDupbcEezSeQirbLpgb9xWAUJZWSebapEeFIOCxYrSuwDWEF2jEcnBE1UOqh73pYerroPlWt5GzcaiOyxeBqwoTGaNBeCiKTrFdjZKk+F7vBfaVIJo/enrU2bQW/EqvltcC690kBvPvHL9hr3cLflz/FP1/9U8ym3v/+m+sJ+bduzuPvy5/iT3dmePePxqdNRLPU0XvJqK6xxzj3E2i7ir+2joqaajwD7WHH9vsuL03N3dhD2dJFJRkRU1aU8x1Cjvz2REe+URm6D+fMueF5OdBTlhsfMGAQJRWfR893ifm1aVIZQpFwqU7vWCqStWOyOs63nfVTEAYvxvqvtFVcOZ11BzlzbhhnGh+ctocO3L4ufFHKIN7vFin3dXx24xNMFkubJgi1Ub+DwYuN9FhSB04sF+GAkih5QKu70xOJUPT56hd1Qsd6QLF969tZcdZ39AGzvdcDKQ+YrXjWyp/uzMgBs4KwjpnvMVbC8nL3z382/DwrVlKgmf3O/+9h7aqObz7B3z73ROiqDi30/PEt+ewu/Jpc1SEI2ULY1Du/LQ/CypI1SgpgToXuG1/wr//vy8ilh1s2ATD+1QM+/PeAXHooCOuQUpeXV3gj9rzAJjuWYA9vJTP1ChlB1pj7hLWH0ent4bQMt9OvZdnXK/En5i/EXycsH8nMfaKkBEEQhFUnmZKSqZwgCIKQsYiSEgRBEDIWUVKCIAhCxiJKShAEQchYREkJgiAIGYsoKUEQBCFjESUlCIIgZCyipARBEISMRZSUIAiCkLGIkhIEQRAyFlFSgiAIQsYiSkoQBEHIWERJCYIgCBmLKClBEAQhYxElJQiCIGQsoqQEQRCEjEWUlCAIgpCxiJISBEEQMhZRUoIgCELGIkpKEARByFhESQmCIAgZiygpQRAEIWMRJSUIgiBkLKKkBEEQhIxFlJQgCIKQsYiSEgRBEDIWUVKCIAhCxiJKShAEQchYREkJgiAIGcv/Bzua+QPMsdpXAAAAAElFTkSuQmCC;" vertex="1" parent="1">
          <mxGeometry x="440" y="330" width="266.11" height="340" as="geometry" />
        </mxCell>
        <mxCell id="Vqh15J--ComA9VXyhkxe-12" value="" style="html=1;shadow=0;dashed=0;align=center;verticalAlign=middle;shape=mxgraph.arrows2.arrow;dy=0.6;dx=40;notch=0;sketch=1;hachureGap=4;jiggle=2;curveFitting=1;fontFamily=Architects Daughter;fontSource=https%3A%2F%2Ffonts.googleapis.com%2Fcss%3Ffamily%3DArchitects%2BDaughter;fontSize=20;fillColor=#f8cecc;strokeColor=#b85450;" vertex="1" parent="1">
          <mxGeometry x="240" y="470" width="170" height="60" as="geometry" />
        </mxCell>
        <mxCell id="Vqh15J--ComA9VXyhkxe-13" value="基本方法" style="text;html=1;strokeColor=none;fillColor=none;align=center;verticalAlign=middle;whiteSpace=wrap;rounded=0;fontSize=20;fontFamily=Architects Daughter;" vertex="1" parent="1">
          <mxGeometry x="260" y="455" width="100" height="15" as="geometry" />
        </mxCell>
        <mxCell id="Vqh15J--ComA9VXyhkxe-19" style="edgeStyle=orthogonalEdgeStyle;rounded=0;sketch=1;hachureGap=4;jiggle=2;curveFitting=1;orthogonalLoop=1;jettySize=auto;html=1;entryX=0;entryY=0.5;entryDx=0;entryDy=0;fontFamily=Architects Daughter;fontSource=https%3A%2F%2Ffonts.googleapis.com%2Fcss%3Ffamily%3DArchitects%2BDaughter;fontSize=16;" edge="1" parent="1" source="Vqh15J--ComA9VXyhkxe-14" target="Vqh15J--ComA9VXyhkxe-16">
          <mxGeometry relative="1" as="geometry" />
        </mxCell>
        <mxCell id="Vqh15J--ComA9VXyhkxe-20" style="edgeStyle=orthogonalEdgeStyle;rounded=0;sketch=1;hachureGap=4;jiggle=2;curveFitting=1;orthogonalLoop=1;jettySize=auto;html=1;exitX=1;exitY=0.5;exitDx=0;exitDy=0;exitPerimeter=0;entryX=0;entryY=0.5;entryDx=0;entryDy=0;fontFamily=Architects Daughter;fontSource=https%3A%2F%2Ffonts.googleapis.com%2Fcss%3Ffamily%3DArchitects%2BDaughter;fontSize=16;" edge="1" parent="1" source="Vqh15J--ComA9VXyhkxe-14" target="Vqh15J--ComA9VXyhkxe-17">
          <mxGeometry relative="1" as="geometry" />
        </mxCell>
        <mxCell id="Vqh15J--ComA9VXyhkxe-21" style="edgeStyle=orthogonalEdgeStyle;rounded=0;sketch=1;hachureGap=4;jiggle=2;curveFitting=1;orthogonalLoop=1;jettySize=auto;html=1;exitX=1;exitY=0.5;exitDx=0;exitDy=0;exitPerimeter=0;entryX=0;entryY=0.5;entryDx=0;entryDy=0;fontFamily=Architects Daughter;fontSource=https%3A%2F%2Ffonts.googleapis.com%2Fcss%3Ffamily%3DArchitects%2BDaughter;fontSize=16;" edge="1" parent="1" source="Vqh15J--ComA9VXyhkxe-14" target="Vqh15J--ComA9VXyhkxe-18">
          <mxGeometry relative="1" as="geometry" />
        </mxCell>
        <mxCell id="Vqh15J--ComA9VXyhkxe-31" style="edgeStyle=orthogonalEdgeStyle;rounded=0;sketch=1;hachureGap=4;jiggle=2;curveFitting=1;orthogonalLoop=1;jettySize=auto;html=1;exitX=1;exitY=0.5;exitDx=0;exitDy=0;exitPerimeter=0;entryX=0;entryY=0.5;entryDx=0;entryDy=0;fontFamily=Architects Daughter;fontSource=https%3A%2F%2Ffonts.googleapis.com%2Fcss%3Ffamily%3DArchitects%2BDaughter;fontSize=16;" edge="1" parent="1" source="Vqh15J--ComA9VXyhkxe-14" target="Vqh15J--ComA9VXyhkxe-30">
          <mxGeometry relative="1" as="geometry" />
        </mxCell>
        <mxCell id="Vqh15J--ComA9VXyhkxe-14" value="" style="html=1;shadow=0;dashed=0;align=center;verticalAlign=middle;shape=mxgraph.arrows2.arrow;dy=0.6;dx=40;notch=0;sketch=1;hachureGap=4;jiggle=2;curveFitting=1;fontFamily=Architects Daughter;fontSource=https%3A%2F%2Ffonts.googleapis.com%2Fcss%3Ffamily%3DArchitects%2BDaughter;fontSize=20;fillColor=#f8cecc;strokeColor=#b85450;" vertex="1" parent="1">
          <mxGeometry x="730" y="550" width="170" height="60" as="geometry" />
        </mxCell>
        <mxCell id="Vqh15J--ComA9VXyhkxe-15" value="接口进行扩展" style="text;html=1;strokeColor=none;fillColor=none;align=center;verticalAlign=middle;whiteSpace=wrap;rounded=0;fontSize=20;fontFamily=Architects Daughter;" vertex="1" parent="1">
          <mxGeometry x="730" y="498.75" width="150" height="2.5" as="geometry" />
        </mxCell>
        <mxCell id="Vqh15J--ComA9VXyhkxe-23" style="edgeStyle=orthogonalEdgeStyle;rounded=0;sketch=1;hachureGap=4;jiggle=2;curveFitting=1;orthogonalLoop=1;jettySize=auto;html=1;exitX=1;exitY=0.5;exitDx=0;exitDy=0;fontFamily=Architects Daughter;fontSource=https%3A%2F%2Ffonts.googleapis.com%2Fcss%3Ffamily%3DArchitects%2BDaughter;fontSize=16;" edge="1" parent="1" source="Vqh15J--ComA9VXyhkxe-16" target="Vqh15J--ComA9VXyhkxe-22">
          <mxGeometry relative="1" as="geometry" />
        </mxCell>
        <mxCell id="Vqh15J--ComA9VXyhkxe-16" value="HierarchicalBeanFactory" style="rounded=1;whiteSpace=wrap;html=1;sketch=1;hachureGap=4;jiggle=2;curveFitting=1;fontFamily=Architects Daughter;fontSource=https%3A%2F%2Ffonts.googleapis.com%2Fcss%3Ffamily%3DArchitects%2BDaughter;fontSize=20;fillColor=#d5e8d4;strokeColor=#82b366;" vertex="1" parent="1">
          <mxGeometry x="980" y="370" width="280" height="60" as="geometry" />
        </mxCell>
        <mxCell id="Vqh15J--ComA9VXyhkxe-25" style="edgeStyle=orthogonalEdgeStyle;rounded=0;sketch=1;hachureGap=4;jiggle=2;curveFitting=1;orthogonalLoop=1;jettySize=auto;html=1;exitX=1;exitY=0.5;exitDx=0;exitDy=0;entryX=0;entryY=0.5;entryDx=0;entryDy=0;fontFamily=Architects Daughter;fontSource=https%3A%2F%2Ffonts.googleapis.com%2Fcss%3Ffamily%3DArchitects%2BDaughter;fontSize=16;" edge="1" parent="1" source="Vqh15J--ComA9VXyhkxe-17" target="Vqh15J--ComA9VXyhkxe-24">
          <mxGeometry relative="1" as="geometry" />
        </mxCell>
        <mxCell id="Vqh15J--ComA9VXyhkxe-17" value="SimpleJndiBeanFactory" style="rounded=1;whiteSpace=wrap;html=1;sketch=1;hachureGap=4;jiggle=2;curveFitting=1;fontFamily=Architects Daughter;fontSource=https%3A%2F%2Ffonts.googleapis.com%2Fcss%3Ffamily%3DArchitects%2BDaughter;fontSize=20;fillColor=#dae8fc;strokeColor=#6c8ebf;" vertex="1" parent="1">
          <mxGeometry x="980" y="480" width="280" height="60" as="geometry" />
        </mxCell>
        <mxCell id="Vqh15J--ComA9VXyhkxe-29" style="edgeStyle=orthogonalEdgeStyle;rounded=0;sketch=1;hachureGap=4;jiggle=2;curveFitting=1;orthogonalLoop=1;jettySize=auto;html=1;exitX=1;exitY=0.5;exitDx=0;exitDy=0;entryX=0;entryY=0.5;entryDx=0;entryDy=0;fontFamily=Architects Daughter;fontSource=https%3A%2F%2Ffonts.googleapis.com%2Fcss%3Ffamily%3DArchitects%2BDaughter;fontSize=16;" edge="1" parent="1" source="Vqh15J--ComA9VXyhkxe-18" target="Vqh15J--ComA9VXyhkxe-28">
          <mxGeometry relative="1" as="geometry" />
        </mxCell>
        <mxCell id="Vqh15J--ComA9VXyhkxe-18" value="AutowireCapableBeanFactory" style="rounded=1;whiteSpace=wrap;html=1;sketch=1;hachureGap=4;jiggle=2;curveFitting=1;fontFamily=Architects Daughter;fontSource=https%3A%2F%2Ffonts.googleapis.com%2Fcss%3Ffamily%3DArchitects%2BDaughter;fontSize=20;fillColor=#e1d5e7;strokeColor=#9673a6;" vertex="1" parent="1">
          <mxGeometry x="980" y="590" width="280" height="60" as="geometry" />
        </mxCell>
        <mxCell id="Vqh15J--ComA9VXyhkxe-22" value="提供父容器的访问功能" style="text;html=1;strokeColor=#82b366;fillColor=#d5e8d4;align=center;verticalAlign=middle;whiteSpace=wrap;rounded=0;fontSize=20;fontFamily=Architects Daughter;" vertex="1" parent="1">
          <mxGeometry x="1350" y="380" width="350" height="40" as="geometry" />
        </mxCell>
        <mxCell id="Vqh15J--ComA9VXyhkxe-24" value=" Spring bean 配置定义放置在 JNDI 上下文中，从而实现将 bean 的创建和管理委托给 JNDI。" style="text;html=1;strokeColor=#6c8ebf;fillColor=#dae8fc;align=center;verticalAlign=middle;whiteSpace=wrap;rounded=0;fontSize=20;fontFamily=Architects Daughter;" vertex="1" parent="1">
          <mxGeometry x="1340" y="480" width="360" height="70" as="geometry" />
        </mxCell>
        <mxCell id="Vqh15J--ComA9VXyhkxe-28" value="提供自动装配Bean的能力" style="text;html=1;strokeColor=#9673a6;fillColor=#e1d5e7;align=center;verticalAlign=middle;whiteSpace=wrap;rounded=0;fontSize=20;fontFamily=Architects Daughter;" vertex="1" parent="1">
          <mxGeometry x="1364" y="600" width="270" height="40" as="geometry" />
        </mxCell>
        <mxCell id="Vqh15J--ComA9VXyhkxe-37" style="edgeStyle=orthogonalEdgeStyle;rounded=0;sketch=1;hachureGap=4;jiggle=2;curveFitting=1;orthogonalLoop=1;jettySize=auto;html=1;exitX=1;exitY=0.5;exitDx=0;exitDy=0;entryX=0;entryY=0.5;entryDx=0;entryDy=0;fontFamily=Architects Daughter;fontSource=https%3A%2F%2Ffonts.googleapis.com%2Fcss%3Ffamily%3DArchitects%2BDaughter;fontSize=16;" edge="1" parent="1" source="Vqh15J--ComA9VXyhkxe-30" target="Vqh15J--ComA9VXyhkxe-34">
          <mxGeometry relative="1" as="geometry" />
        </mxCell>
        <mxCell id="Vqh15J--ComA9VXyhkxe-30" value="ListableBeanFactory" style="rounded=1;whiteSpace=wrap;html=1;sketch=1;hachureGap=4;jiggle=2;curveFitting=1;fontFamily=Architects Daughter;fontSource=https%3A%2F%2Ffonts.googleapis.com%2Fcss%3Ffamily%3DArchitects%2BDaughter;fontSize=20;fillColor=#f0a30a;strokeColor=#BD7000;fontColor=#000000;" vertex="1" parent="1">
          <mxGeometry x="980" y="700" width="280" height="60" as="geometry" />
        </mxCell>
        <mxCell id="Vqh15J--ComA9VXyhkxe-34" value="可以列出工厂可以生产的所有实例。" style="text;html=1;strokeColor=#BD7000;fillColor=#f0a30a;align=center;verticalAlign=middle;whiteSpace=wrap;rounded=0;fontSize=20;fontFamily=Architects Daughter;fontColor=#000000;" vertex="1" parent="1">
          <mxGeometry x="1364" y="707.5" width="246" height="45" as="geometry" />
        </mxCell>
        <mxCell id="Vqh15J--ComA9VXyhkxe-38" value="&lt;p style=&quot;margin: 10px auto; padding: 0px; text-indent: 0px; color: rgb(0, 0, 0); font-family: &amp;quot;PingFang SC&amp;quot;, &amp;quot;Microsoft YaHei&amp;quot;, &amp;quot;Helvetica Neue&amp;quot;, Helvetica, Arial, sans-serif; font-style: normal; font-variant-ligatures: normal; font-variant-caps: normal; font-weight: 400; letter-spacing: normal; orphans: 2; text-align: left; text-transform: none; widows: 2; word-spacing: 0px; -webkit-text-stroke-width: 0px; background-color: rgba(255, 255, 255, 0.5); text-decoration-thickness: initial; text-decoration-style: initial; text-decoration-color: initial;&quot;&gt;&lt;font style=&quot;font-size: 20px;&quot;&gt;BeanFactory接口定义了IOC容器的最基本功能,提供了容器应该具有的功能规范,所有的容器都应该实现这个接口&lt;/font&gt;&lt;/p&gt;&lt;p style=&quot;margin: 10px auto; padding: 0px; text-indent: 0px; color: rgb(0, 0, 0); font-family: &amp;quot;PingFang SC&amp;quot;, &amp;quot;Microsoft YaHei&amp;quot;, &amp;quot;Helvetica Neue&amp;quot;, Helvetica, Arial, sans-serif; font-style: normal; font-variant-ligatures: normal; font-variant-caps: normal; font-weight: 400; letter-spacing: normal; orphans: 2; text-align: left; text-transform: none; widows: 2; word-spacing: 0px; -webkit-text-stroke-width: 0px; background-color: rgba(255, 255, 255, 0.5); text-decoration-thickness: initial; text-decoration-style: initial; text-decoration-color: initial;&quot;&gt;&lt;font style=&quot;font-size: 20px;&quot;&gt;BeanFactory设计了getBean方法用来获取容器中的Bean,是容器API的主要方法&lt;/font&gt;&lt;/p&gt;" style="text;whiteSpace=wrap;html=1;fontSize=20;fontFamily=Architects Daughter;fillColor=#b1ddf0;strokeColor=#10739e;" vertex="1" parent="1">
          <mxGeometry x="706.11" y="880" width="709" height="140" as="geometry" />
        </mxCell>
      </root>
    </mxGraphModel>
  </diagram>
</mxfile>
